<svg width="288.25mm" height="547.502" version="1.1" viewBox="0 0 288.25 144.86" id="svg464" xmlns="http://www.w3.org/2000/svg"><defs id="defs10"><clipPath id="b" stroke-linejoin="round" stroke-miterlimit="100000"><path d="M54 73.26a33.66 33.66 0 1 0-.001-67.321A33.66 33.66 0 0 0 54 73.26z" stroke-linejoin="round" stroke-miterlimit="100000" id="path4"/></clipPath><clipPath id="a" stroke-linejoin="round" stroke-miterlimit="100000"><path d="M54 73.26a33.66 33.66 0 1 0-.001-67.321A33.66 33.66 0 0 0 54 73.26z" stroke-linejoin="round" stroke-miterlimit="100000" id="path7"/></clipPath><style type="text/css" id="style2">*{stroke-linecap:butt;stroke-linejoin:round;stroke-miterlimit:100000}</style></defs><g transform="translate(332.32 -6.988)" id="g462"><g id="g2023"><path d="M312 331H1V1h503v330H312m96.898-61.314c-.623.028-1.246.056-1.876-.784v-9.324c-4.817.275-5.786 2.954-5.335 5.808.199 1.257-.51 5.034 3.308 4.472 4.628 2.355 8.945-.067 8.851-4.967-.064-3.383-1.787-4.882-4.771-3.116.049 2.451.098 4.903-.177 7.911m-21.823-7.911c.049 2.451.098 4.903-.177 7.911-.623.028-1.246.056-1.876-.784v-9.324c-4.817.275-5.786 2.954-5.335 5.808.199 1.257-.51 5.034 3.308 4.472 4.628 2.355 8.945-.067 8.851-4.967-.064-3.383-1.787-4.882-4.77-3.116m-282 0c.048 2.451.097 4.903-.178 7.911-.623.028-1.246.055-1.876-.784v-9.49c-4.694.539-5.838 3.075-5.338 5.972.219 1.27-.506 5.036 3.312 4.474 4.627 2.355 8.944-.067 8.85-4.967-.064-3.383-1.787-4.882-4.77-3.116m323.11 28.215-2.444.204v11.871c1.76-.122 3.507-.243 6.107-.218h5.897c-.331-.89-.68-1.462-.747-2.067-.302-2.75.31-6.084-1.057-8.07-.992-1.442-4.571-1.102-7.757-1.72m-60-31-2.442.205v11.87c1.76-.121 3.506-.242 6.107-.218h5.897c-.332-.89-.68-1.462-.747-2.066-.303-2.75.31-6.085-1.058-8.071-.992-1.441-4.57-1.101-7.758-1.72m-115.33 42.857h5.897c-.331-.89-.68-1.462-.747-2.067-.302-2.75.31-6.084-1.057-8.07-.993-1.442-4.571-1.102-7.757-1.72l-2.443.204v11.871c1.76-.122 3.507-.243 6.107-.218m-179 0h5.897c-.331-.89-.68-1.463-.747-2.067-.302-2.75.31-6.084-1.057-8.07-.993-1.442-4.571-1.101-7.757-1.72l-2.443.204v11.871c1.76-.122 3.507-.243 6.107-.218m149.11-111.01s.127.114-.024.58c0 0-.103.478-.963.538h-5.2l-2.057-7.008-1.686.28.433 6.44c-7.467.776-7.467.776-13.984-9.426 1.692-1.852 6.63-1 4.75-6.13-2.152.96-4.35 1.68-6.273 2.852-3.86 2.352-3.624 6.189.22 8.476 1.685 1.002 3.112 2.439 5.448 4.314h-9.96l-1.982-6.832-1.709.317.548 6.464h-6.908c-.64-2.228-.833-4.352-1.87-5.918-.545-.823-3.092-1.382-3.835-.836-4.297 3.158-3.345 10.262 2.162 13.117-2.482 1.093-4.487 2.525-6.626 2.765-2.165.243-4.461-.693-7.306-1.226 7.176 6.904 11.4 7.186 15.175.86 1.76-2.95 3.676-3.522 6.722-3.506 14.983.076 29.966-.041 45.777-.318.098-1.802.414-3.625.247-5.402-.308-3.265-1.457-6.54-1.244-9.744.32-4.818.69-4.794-4.098-7.51 1.108 5.567 2.215 11.134 3.243 16.852 0 0 .127.115-.023.58 0 0-.1.479-.928.537-1.933-.03-3.865-.06-5.904-.918-.506-3.115-1.548-6.256-1.397-9.338.247-5.043.574-5.027-2.885-8.41-1.754 6.351 1.677 11.72 2.137 17.55m176 .003s.127.116-.023.577c0 0-.097.476-.941.537h-5.243l-3.664-6.995c-5.126.67-4.99 9.576-10.888 6.883l-4.062-11.417-2.505.897c1.086 3.407 2.171 6.815 3.41 10.699-2.533 0-4.815 0-7.58-.422-1.642.996-3.907 1.602-4.819 3.056-3.931 6.267-7.12 7.883-13.8 6.197 5.494 6.143 11.295 5.303 14.58-1.924.552-1.214 2.268-1.898 3.946-2.11 4.117.064 8.24.29 12.349.124 2.093-.084 4.17-1.316 6.232-1.255 4.685.14 9.355.757 14.86.954.098-1.803.414-3.625.247-5.403-.308-3.265-1.457-6.54-1.244-9.744.32-4.819.689-4.794-4.098-7.51 1.108 5.567 2.216 11.134 3.243 16.855m-261 42s.128.115-.021.578c0 0-.101.476-.96.535h-5.25l-1.956-7.16-1.432.138v6.747h-6.637l-2.097-6.953-1.629.313.509 6.948c-.932 0-2.06.03-3.185-.008-1.288-.042-2.575-.144-3.865-.22-.144-.774-.145-1.284-.335-1.71-1.02-2.283-1.544-5.493-3.314-6.505-1.328-.758-4.443 1.034-6.463 2.206-2.715 1.574-5.09 3.724-7.71 5.48-2.279 1.526-3.739.868-4.046-1.945-.105-.958-.198-1.917-.393-3.818-3.028 7.12-3.622 7.402-10.828 5.77l-1.53-15.42-2.267.21c.333 5.447.602 10.9 1.023 16.34.262 3.385 2.063 4.846 5.642 4.732 3.923-.124 7.753-.667 11.819-.44 15.274.848 30.628.262 46.78-.017.098-1.802.414-3.625.246-5.402-.308-3.265-1.456-6.54-1.244-9.744.32-4.819.69-4.794-4.095-7.511 1.106 5.568 2.212 11.136 3.238 16.856m163.67 57.538c-3-1.187-5.247.284-5.768 2.875-.463 2.31-.085 5.302 1.135 7.22.63.992 3.899.306 6.253 1.027l4.882-.584-1.576-.475-.735-16.252-2.729-.135c-.41 2.559-.765 4.77-1.462 6.324m-24.673-57.535s.128.113-.017.576c0 0-.108.474-.966.526h-5.092l-2.313-7.204-1.636.354.576 6.668h-11.09c-.514-5.417-1.011-10.676-1.509-15.935-1.825.733-2.763 1.572-2.697 2.323.473 5.37.898 10.773 1.952 16.042.239 1.192 2.86 2.638 4.436 2.702 6.454.26 12.928.03 20.22-.255.097-1.803.412-3.626.244-5.403-.308-3.265-1.456-6.54-1.243-9.744.32-4.819.69-4.794-4.09-7.511 1.101 5.57 2.203 11.14 3.225 16.86m88.013-.005s.127.116-.025.579c0 0-.095.477-.95.54-5.252.925-9.09-1.079-12.63-5.029-3.949-4.407-5.998-4.03-9.188.24l7.583 3.712-.498.869h-9.819l-.892-5.78-1.26-.057-1.339 7.558-2.937-5.64c-2.56 5.324-6.537 6.085-10.297 1.773l-5.883 2.836-2.21-6.357-1.656.386c.218 1.794.628 3.591.602 5.382-.031 2.148.246 5.635-.812 6.171-2.612 1.324-6.025 2.022-8.896 1.571-2.208-.347-4.081-2.825-7.045-5.069.88 2.754.97 5.83 2.552 7.44 4.245 4.32 13.571 2.238 16.57-3.146.44-.788 1.451-1.363 2.32-1.79 5.192-2.552 10.611.038 16.036-.513 10.444-1.06 21.115.108 32.521.128.1-1.802.416-3.625.249-5.402-.308-3.265-1.457-6.54-1.244-9.745.319-4.819.688-4.794-4.1-7.51 1.11 5.567 2.219 11.134 3.249 16.853m-201-42s.126.114-.024.58c0 0-.1.478-.956.537h-5.28c-.625-2.23-.941-4.196-1.725-5.954-1.052-2.36-2.725-2.775-4.6-.686-3.67 4.091-2.75 9.885 1.98 12.504-3.61 4.097-8.018 3.931-12.811 1.71 6.372 6.462 10.532 7.408 13.476 2.462 2.838-4.767 6.41-5.359 11.792-5.35.097-1.802.413-3.624.246-5.402-.308-3.265-1.457-6.54-1.244-9.744.32-4.818.69-4.793-4.098-7.51 1.108 5.567 2.215 11.135 3.243 16.853m127 .003s.127.115-.021.578c0 0-.101.476-.998.536h-9.383c.185-1.162.15-1.687.353-2.09 1.428-2.833 1.21-5.406-1.958-6.562-2.957-1.078-5.543-.319-6.738 3.152-.221.643-1.343.976-2.143.574-.145-1.812-.591-3.66-.376-5.427.596-4.895.705-4.882-4-7.663 1.116 5.585 2.232 11.17 3.105 17.579l-6.086.531-1.97-7.275-1.654.23.318 6.983h-4.825c-6.756 0-6.664-.002-6.88-6.838-.1-3.13-.641-6.247-.982-9.37l-2.502.254c.773 6.47 1.43 12.959 2.48 19.383.118.72 2.453 1.502 3.775 1.53 7.152.15 14.31.177 21.461.003 2.007-.049 4.01-1.381 5.987-1.316 4.697.155 9.377.794 14.892 1.009.098-1.803.414-3.625.246-5.403-.307-3.265-1.456-6.54-1.244-9.744.32-4.819.69-4.794-4.098-7.526 1.107 5.573 2.214 11.147 3.241 16.872m-8.714 79.66 4.882-.585-1.577-.48-.734-16.246-2.729-.135c-.41 2.559-.765 4.77-1.462 6.324-3-1.188-5.247.283-5.768 2.875-.463 2.309-.085 5.302 1.135 7.22.63.992 3.9.305 6.253 1.027m136.7-1.387c3.899-1.514 8.715-2.225 7.274-8.438-.034-.147 1.822-.734 3.434-.489v10.693h5.117l-1.134-12.07c-1.738.24-3.179.438-5.542.662-2.426-.172-4.868-.604-7.275-.459-4.51.272-6.015 3.592-3.719 7.49.388.66.11 1.71-.409 3.007-.528 5.739 3.522 5.721 7.359 5.66 1.142-.018 2.27-.908 3.405-1.398-.836-1.24-1.426-3.151-2.562-3.564-1.762-.641-3.895-.26-5.947-1.095m-140.07 32.896h5.668c-.638-6.199-1.499-11.96.659-17.993-2.284 0-4.744 0-7.882-.022-.453.014-.905.03-2.228.005h-5.953v17.969c1.855 0 4.34 0 7.502.036.452-.005.905-.01 2.234.006m81.57-42.24h-5.884c-1.1-6.498-1.1-6.498-3.807-6.37v17.65c3.217 0 6.516.078 9.802-.097.418-.023.766-1.372 1.28-2.917-.296-2.54-.592-5.082-1.39-8.265M396.1 293.74c-.021 2.097-.042 4.194-.082 6.699 1.29-.365 3.55-.507 3.694-1.134.518-2.264 1.193-5.237.15-6.902-1.007-1.607-4.065-1.928-6.865-3.079l-.382-5.114h-4.045v16.17c1.686.649 2.806 1.079 4.726 1.218.253-3.094.506-6.188 1.364-9.516.53.26 1.061.52 1.44 1.658m-220.94-23.722s-.05-.036.14.698c4.08 1.092 6.02-1.112 6.58-4.687.503-3.214-.459-6.269-4.027-6.938-2.884-.54-5.95-.11-8.376-.11v17.898h4.377c.503-2.533.929-4.679 1.306-6.861m24.833-36.06h-4.738l-3.996-11.463-2.538.834 3.179 10.453h-8.498c-1.034 3.803.124 5.452 4.088 5.278 4.784-.21 9.584-.05 14.435-.05.126-1.98.22-3.468.843-5.267-.435-3.298-2.029-7.014-1.027-9.793 1.421-3.938.917-6.263-2.77-8.69-.378 1.843-1.236 3.633-.982 5.248.71 4.503 1.88 8.932 2.003 13.451m73.72-143.46V24.27h-24.298v136.42c6.526 0 12.815-.243 19.075.084 4.216.22 5.343-1.256 5.307-5.365-.184-21.302-.086-42.606-.085-64.909m-95.19 3.492h-25.575v24.528l1.209.06c.247-1.702.472-3.406.744-5.102.584-3.64 2.298-6.473 6.313-6.508 12.314-.106 24.647-.368 36.941.17 8.234.36 13.916 5.789 14.495 11.902-10.523 1.357-21.097 2.325-31.519 4.162-14.359 2.532-24.624 10.51-27.468 25.286-2.145 11.146-3.496 10.494 8.781 9.939.278-.013.541-.344 1.13-.742-.615-9.245 4.547-15.336 12.666-18.575 6.247-2.492 12.986-4.136 19.659-5.074 7.82-1.098 15.805-1.023 24.507-1.5-.34-5.913-.022-11.793-1.126-17.393-2.901-14.712-11.253-21.15-26.273-21.153h-14.483m20.354-68.68h-46.032V49.754l1.316.021c.168-1.03.364-2.056.499-3.09.885-6.78 2.948-8.659 9.675-8.672 10.329-.02 20.659-.093 30.986.021 9.6.107 16.412 5.037 17.75 12.656-5.606.45-11.23.706-16.8 1.399-5.772.717-11.542 1.623-17.225 2.855-16.951 3.674-27.992 18.548-25.713 34.592h10.116c.956-10.832 4.257-15.642 14.2-19.838 3.945-1.665 8.165-3.094 12.384-3.608 9.866-1.201 19.808-1.784 31.12-2.736-.91-6.93-1.207-14.23-2.946-21.168-2.34-9.334-8.804-15.01-19.331-16.878m-147 42.11V43.924c0-12.044 0-12.044 10.733-17.225-1.311-.682-2.137-1.48-2.97-1.489-9.163-.09-18.328-.089-27.491 0-.746.008-1.484.849-2.226 1.302.784.567 1.493 1.439 2.363 1.652 6.952 1.7 7.913 2.942 7.893 10.377-.027 9.66-.213 19.326.039 28.98.466 17.863 8.907 32.31 32.426 30.482 17.225-1.34 27.195-11.21 27.374-28.544.105-10.163.015-20.328.02-30.492.005-7.881.429-8.405 8.04-10.793.728-.228 1.275-1.034 1.905-1.571-.696-.484-1.388-1.382-2.09-1.389-9.163-.093-18.327-.106-27.49.031-.718.01-1.416 1.293-3.002 2.843 6.338.05 11.113 1.39 11.232 6.948.284 13.301-.116 26.62-.434 39.927-.05 2.086-.939 4.217-1.741 6.206-2.939 7.281-8.482 10.86-16.273 10.959-7.565.095-13.495-3.684-16.074-11.098-1.388-3.99-1.53-8.414-2.235-13.612m298.8 31.517c.947-8.502.702-8.784-7.647-8.784h-13.761V74.176c7.203 0 14.024-.197 20.826.072 4.295.169 4.54-2.403 4.454-5.417-.08-2.789.311-5.805-4.172-5.73-9.996.167-19.996.08-29.995.04-3.794-.014-5.39 1.839-5.38 5.552.041 18.664.038 37.328.004 55.992-.007 3.715 1.506 5.432 5.413 5.372 9.663-.15 19.336-.256 28.992.047 4.222.132 5.626-1.342 5.526-5.382-.092-3.715-.817-5.91-5.35-5.665-6.757.365-13.548.095-20.322.095v-18.305c3.55 0 6.719.147 9.868-.039 3.713-.22 7.408-.728 11.544-1.872m41.907-11.852c-3.456-2.042-6.604-4.433-5.153-9.066 1.488-4.752 5.596-5.494 9.731-4.902 3.216.461 6.306 1.834 9.432 2.86 1.33.436 2.61 1.021 3.914 1.54 3.258-8.462 1.59-12.505-6.318-14.144-4.62-.957-9.615-1.265-14.272-.63-9.573 1.308-15.32 7.034-16.67 15.326-1.428 8.764 2.201 15.993 10.636 20.62 3.921 2.153 8.109 3.815 12.076 5.89 3.866 2.023 6.385 5.063 4.935 9.702-1.335 4.27-5.055 6.104-9.003 5.55-5.139-.722-10.089-2.707-15.181-3.89-1.37-.317-3.895-.186-4.289.572-2.266 4.357 0 9.951 4.636 11.95 7.09 3.059 14.467 3.618 21.951 1.795 9.564-2.33 15.423-8.514 16.451-17.09 1.154-9.62-2.386-15.943-11.866-20.872-3.38-1.758-6.901-3.245-11.009-5.212m80.665-12.528c.667 0 1.341-.067 1.998.01 4.647.552 4.59-2.707 4.611-5.772.022-3.213-.362-5.796-4.842-5.727-13.99.214-27.986.214-41.975.004-4.789-.072-4.469 3.128-4.472 5.987-.003 2.68-.281 5.864 4.272 5.564 4.597-.303 9.23-.067 14.334-.067v5.854c0 14.992.082 29.984-.062 44.975-.033 3.431 1.108 4.999 4.556 4.808 1.329-.074 2.674-.113 3.995.01 3.944.368 5.567-.92 5.485-5.306-.278-14.987-.106-29.982-.106-44.973v-5.366h12.207m-347.23 34.943v-83.21h-9.852v131.4h9.852v-48.19m12.39 48.495c4.574.683 3.596-2.623 3.597-5.102.019-40.595.016-81.191.004-121.79 0-1.613-.14-3.225-.216-4.857h-9.558v131.75h6.174m-49.407-22.5c.033 3.99.194 7.984.067 11.97-.172 5.394-2.354 7.792-7.552 8.821-.858.17-1.67.574-2.503.87l.14.923H109.8c-.375-1.192-.872-1.604-1.427-1.709-7.624-1.436-8.58-2.56-8.65-10.046-.168-18.447-.362-36.895-.543-55.342-.013-1.385-.002-2.77-.002-4.797-2.748 3.368-4.609 6.382-7.172 8.576-2.448 2.097-3.1 4.29-3.06 7.31.14 10.808.055 21.617.055 33.424M42.176 87.372c-.101-.132-.182-.293-.31-.387-.106-.078-.27-.077-.407-.11-.197 1.047-.554 2.093-.566 3.143-.216 17.777-.425 35.554-.557 53.331-.076 10.323-.015 10.32-9.531 13.417-.216.07-.305.534-.654 1.196h30.643c-9.793-4.278-9.823-4.349-9.762-15.321.066-11.971.015-23.943.179-35.913.073-5.38.21-10.513-5.146-13.976-1.55-1.003-2.352-3.162-3.89-5.381m384.01 143.32-2.839-4.696c-2.458 2.983-3.908 6.021-6.294 7.271-2.31 1.21-5.585.58-9.1.8 1.957-4.179 3.285-7.866-1.891-8.974-4.374-.937-5.924 1.87-5.987 5.764l3.796 1.982c-7.75 2.16-8.726 1.577-9.6-4.756-.395-2.855-.762-5.715-1.18-8.86-3.38 4.581-6.391 8.66-9.402 12.738l.809 1.577 8.371-.801c1.315 5.627 1.955 6.96 5.688 6.09 5.367-1.249 10.44.394 15.63.153 4.117-.191 8.218-.697 12.964-1.12a106.25 106.25 0 0 0-.965-7.169m-305.66-33.676h19.372c1.23-6.628-4.762-7.77-7.544-10.949-3.23-3.692-5.575-2.903-7.994 1.152l7.364 3.61c-2.704 1.154-4.99 1.171-7.275 1.146-.972-.01-1.943-.11-2.78-.16-.681-2.53-1.29-4.784-1.898-7.039l-1.654.223.308 6.985h-4.817c-6.763 0-6.67-.001-6.888-6.846-.1-3.131-.647-6.248-.992-9.372l-1.446.147c0 4.76-.168 9.528.042 14.28.262 5.913 1.356 6.811 7.213 6.823 2.665.005 5.33 0 8.99 0m216.89-5.034-5.389-1.495c-3.533.528-6.627 1.736-9.24 1.067-1.312-.336-1.973-4.033-2.524-6.307-.615-2.542-.77-5.195-1.148-7.954l-9.397 12.49.7 1.594 8.423-.432c1.79 6.47 4.442 7.936 10.598 5.182.717-.321 1.482-.952 2.162-.876 5.38.598 10.743 1.334 16.002 2.013v-11.266l-1.31-.106-1.35 7.626-2.804-5.596c-1.043 1.077-2.482 2.563-4.723 4.06m94.347 31.973-1.359-6.203-2.119.3c.7 6.386 1.316 12.785 2.21 19.145.101.714 1.762 1.705 2.716 1.724 7.242.145 14.489.08 21.846.08.546-6.693-5.17-8.151-8.168-11.388-2.966-3.204-5.454-2.192-7.385 1.593l7.237 3.673-.499.71h-14.086c-.142-3.165-.267-5.961-.393-9.633m-199.91 15.8 5.77 2.424c-4.107.333-7.19 1.283-9.832.58-2.235-.593-3.96-3.102-6.71-5.443.15 2.818-.752 6.394.64 8.115 3.75 4.638 9.258 2.809 13.73 1.164 2.205-.812 3.432-4.283 5.102-6.551l-1.043-1.164h10.337v-4.89c-3.557 0-6.847.036-10.136-.01-3.696-.052-6.383 1.386-7.858 5.774m-56.73 44.57c2.673 2.972 2.806 14.365.147 17.517h6.86l-1.1-8.465h7.208l-1.432 8.467h7.25c-2.85-3.124-2.937-14.53-.179-17.717h-7.108l1.333 7.575h-7.327l1.581-7.686c-1.937 0-4.26 0-7.232.309m-110.55-165.23c-1.823 0-3.653.104-5.468-.02-4.06-.28-4.479 1.613-3.177 4.758h28.25c1.228-3.475.347-4.903-3.213-4.782-5.132.174-10.273.044-16.392.044m9.612 139.04.315-4.533 7.383 1.735c-.454-2.822-1.937-3.088-13.713-2.062 2.685 3.084 2.747 14.32.096 17.491 13.435.96 14.09.83 14.513-2.415l-8.302 2.09v-8.57l3.388 1.21v-3.199l-.955.96c-.907-.639-1.815-1.278-2.725-2.708m-3.258-25.789c-1.08-.137-2.345-.703-3.205-.332-2.856 1.233-4.468.43-5.313-1.822l7.27-3.08c-4.016-2.705-6.55-2.869-8.608.058-2.174 3.09-4.28 6.237-.234 9.177l-2.468 6.086c4.763-3.617 8.545-6.49 12.558-10.087m237.22 21.52v1.772l6.09-1.986c-1.115 6.396 1.365 12.044-1.762 17.243h7.275c-3.359-5.329-.85-11.057-1.889-17.284l5.967 1.827c-.459-1.346-1.375-2.349-2.314-2.372-4.32-.107-8.648.06-13.366.8m-254.18 30.115H48.52c.227 3.248.577 6.238.618 9.232.109 7.919 2.036 9.6 8.928 8.46-1.169-.928-4.097-2.147-4.17-3.517-.248-4.673.508-9.4.073-14.175m275.2 8.717c.764 7.545 5.986 10.965 12.958 8.487-6.241-.477-7.88-1.97-8.2-7.476-.349-5.975 1.505-7.961 8.562-9.173-7.23-1.323-10.763.646-13.32 8.162m-170.31-27.398v-6.062h-4.144c.117 2.663-.215 5.235.477 7.495.502 1.642 2.111 3.536 3.671 4.112 1.924.71 4.31.17 6.28.17v-11.833h-3.222c0 2.624.131 5.068-.076 7.483-.066.77-1.032 1.461-1.586 2.188-.466-.888-.931-1.776-1.4-3.554m80.197-4.452-3.515-2.407c.048 4.384 1.86 7.908-2.588 11.583v-10.79h-4.518c.454 3.568-.228 7.931 1.638 10.035 1.724 1.943 6.179 1.463 8.992 1.97 0-3.668 0-6.584-.008-10.391m-54.563-188.59c-5.76-.133-10.631 1.691-14.675 6.623l7.96 3.991c2.411-3.569 4.546-6.729 6.715-10.615m147.54 196.59-2.918-3.595 6.864-.356.916-1.276c-1.695-1.541-3.244-4.038-5.13-4.325-1.539-.234-4.707 1.963-4.96 3.454-.392 2.321.53 5.368 1.98 7.287.74.979 3.843.172 5.877.172l-.053-1.268c-.646 0-1.293 0-2.576-.093m-207.11-.771-1.225-2.807 6.184-.386.965-1.177c-1.636-1.568-3.112-4.099-4.957-4.405-1.546-.257-4.744 1.849-5.028 3.328-.444 2.309.362 5.43 1.806 7.31.837 1.089 3.96.42 6.054.542l.02-1.349c-1.112-.176-2.225-.353-3.82-1.056m66.463-8.14c-3.01-2.276-5.584-.429-6.232 1.963-.653 2.407-.007 5.69 1.28 7.875.626 1.061 4.016.493 7.058.734l-6.036-4.044.641-1.155 6.846-.64c-1.206-1.894-2.03-3.19-3.557-4.733m26.597.522c-2.602 3.094-3.048 6.551.094 9.157 1.47 1.218 4.32.769 6.546 1.076l-.168-.931-4.963-3.406.718-1.164 5.817-.297c-.863-5.564-2.58-6.64-8.044-4.435m-75.672-4.302.488-2.312c-4.953 3.413-4.446 6.381 1.264 9.456 2.778 1.496 6.618 2.203 3.676 7.278 5.301-3.329 5.494-6.446 1.206-9.382-2.148-1.47-4.332-2.888-6.634-5.04m120.57 12.788-4.324-2.556c.24-.393.478-.787.717-1.18l5.75-.378c.451-4.132-1.994-3.881-4.851-4.478-3.015-.63-4.585.58-4.595 2.637-.013 2.466.883 5.333 2.359 7.295 1.356 1.802 3.372.985 4.944-1.34m31.528-.337-1.864-3.307 6.358-.502c1.153-5.802-3.717-3.536-5.885-4.576-.618-.296-3.529 1.959-3.49 2.972.09 2.38.81 5.158 2.3 6.899.826.966 3.71.173 5.666.173v-1.286c-.82-.044-1.64-.088-3.086-.373m16.268 24.752c-1.264 3.128-.987 6.186 2.064 7.79 1.6.841 4.004.149 6.47.149l-5.739-3.935.72-1.167 5.853-.319c-.836-5.08-4.569-6.312-9.368-2.518m-144.55 1.537c-.368-5.546-5.491-3.926-7.446-3.417-3.186.831-3.445 4.66-1.913 7.577 1.951 3.714 4.847 3.987 7.694 1.73l-4.981-3.427.73-1.017c1.938-.247 3.876-.493 5.916-1.446m-61.448-1.538c-1.264 3.129-.987 6.186 2.064 7.791 1.6.841 4.005.149 6.47.149l-5.72-3.922.7-1.18 5.854-.319c-.836-5.08-4.569-6.312-9.368-2.519m341.02-28.32.303-4.176c-2.48.018-5.739-.944-7.27.27-2.719 2.157-2.635 5.994.124 8.275 1.485 1.228 4.332.81 6.564 1.134l-.166-.887-4.806-3.188.644-1.212c1.284-.07 2.568-.14 4.607-.215m-42.156 35.844c-.114.12-.254.224-.333.363-.053.093-.029.34-.022.341 2.06.2 4.121.385 5.23.485V284.18h-4.354c0 5.491 0 10.808-.52 16.699m-8.288-43.763v13.776h4.255v-17.751h-5.33c.399 1.17.734 2.156 1.075 3.975m-278.15 8.926v-12.775h-4.44v17.617h5.55c-.395-1.411-.752-2.688-1.11-4.842m81.733 26.453-1.686.539-.014-.044 4.83-1.567-1.524 8.27 6.815 2.368c-.243-3.69-.024-6.21-.696-8.465-.423-1.418-2.002-2.995-3.402-3.446-.964-.31-2.51 1.188-4.323 2.344m43.937 4.68c-.663-2.246-.922-6.11-2.072-6.397-2.33-.579-5.14.78-7.754 1.341 1.005.686 1.679.035 2.484-.27.795-.3 1.723-.252 2.593-.356.122 1.036.581 2.182.29 3.085-.504 1.565-1.473 2.98-2.64 5.209l7.188 1.695a569.675 569.675 0 0 1-.089-4.307m117.26 2.426c-.131-2.14.102-4.393-.524-6.377-.405-1.286-1.935-2.804-3.197-3.063-1.144-.234-2.618 1.078-3.926 1.749-.766.393-1.49.868-2.234 1.306.791-.387 1.464-1.09 2.286-1.405.791-.303 2.378-.493 2.498-.228.404.895.63 2.117.338 3.025-.501 1.561-1.444 2.98-2.462 4.966 3.119-.34 4.745 5.615 7.22.027m18.353-.495c2.32.695 3.756 4.851 7.197 1.714-.666-3.224-.384-7.253-2.235-9.598-3.05-3.866-5.702.044-8.599 2.419 1.186-.826 1.866-1.5 2.684-1.81.795-.3 1.732-.226 2.606-.316.106 1.035.502 2.15.246 3.087-.36 1.318-1.206 2.504-1.9 4.504m42.99-6.816c-3.628-5.176-6.34-1.477-8.498.426l4.129-1.244-1.52 7.849c.547.262 1.114.574 1.711.812 1.398.558 2.81 1.081 4.216 1.619.12-1.407.31-2.811.343-4.22.034-1.483-.08-2.97-.38-5.242m33.917.37c.12-.396.246-1.135.36-1.133.878.012 2.116-.136 2.535.362.476.564.515 1.862.215 2.635-.602 1.551-1.563 2.962-2.615 4.863l8.304 3.07c-1.246-5.009-1.866-8.442-3.031-11.678-.406-1.13-1.02-.909-6.424 1.784-.68.24-.247.087.656.098m-302.75 9.197c-.22-1.83-.494-3.656-.65-5.492-.276-3.267 2.03-6.55-.048-9.814-.141-.222-.29-.44-.053-.082-1.729 1.344-3.395 2.64-4.17 3.241.155 3.18.362 5.518.357 7.855-.005 2.676.636 4.632 4.564 4.292m129.35-76.662 1.582 13.537c4.277-6.908.947-13.733.448-20.578l-1.287-.163c-.284 2.135-.568 4.271-.743 7.204m123.8-49.034c-.732 1.55-2.17 3.147-2.068 4.64.367 5.335 1.255 10.634 1.946 15.946 1.55-2.113 2.399-4.429 2.238-6.672-.319-4.464-1.193-8.888-2.116-13.914m-261.64 59.217.417 3.444c4.187-7.06 1.054-13.79-.26-20.658-.96 1.966-1.51 4-1.397 5.999.194 3.467.796 6.91 1.24 11.215m228.93-11.591-1.3-5.664c-3.632 6.944.361 13.734-.002 20.615 3.622-4.47 1.626-9.37 1.301-14.951m-193.03 9.452-1.946-15.158c-4.195 6.95.158 13.766-.916 20.634l1.375.258c.474-1.625.948-3.25 1.487-5.734m119.21-48.936-1.335-8.205c-3.841 6.941.262 13.75-.743 20.619l2.207.056c0-3.871 0-7.742-.129-12.47m-89.475 45.454-1.815-11.666c-3.912 6.937.24 13.754-.802 20.621l1.809.18c.308-2.755.615-5.51.808-9.135m-12.23 39.01c.184 2.686.184 2.686 4.004 1.828 0-2.412-.434-4.69.09-6.722 1.112-4.307-.53-5.419-3.973-4.789 0 3.062 0 5.962-.122 9.684M247.103 259l-2.913.153v11.48h4.542c-.12-2.383-.18-4.424-.337-6.458-.128-1.669-.373-3.33-1.292-5.175m-125.85 37.716c1.137-6.592 1.004-6.796-4.024-6.396v11.45h5.046c-.382-1.557-.708-2.886-1.022-5.054m47.025-55.895c-1.65 1.046-3.198 2.647-4.982 2.978-1.711.318-3.667-.68-5.515-1.1l-.382 1.847c3.408.619 7.113 2.378 10.152 1.585 4.412-1.151 5.396-5.48 4.82-10.18-1.32 1.622-2.442 3-4.093 4.87m40.986 26.21-.896 3.861h5.257l-.828-11.76h-4.05c.18 2.457.35 4.769.517 7.9m-122.24 23.946-4.321-1.215v12.081h4.843c-.157-3.437-.306-6.717-.522-10.866m57.078 4.385v-5.195h-4.417v11.663h5.158c-.259-1.954-.5-3.772-.74-6.468m304.19 5.694c.11-.124.246-.235.323-.377.046-.087.05-.27-.008-.33-1.56-1.608-3.454-3.01-4.576-4.878-.667-1.112-.122-2.953-.122-5.08-3.746 2.242-4.632 4.922-3.442 7.995 1.243 3.206 3.719 4.574 7.824 2.67m-102.63-30.53.782-1.313c-5.895-.75-4.14-5.57-4.62-9.507-3.508 1.473-4.282 4.01-3.573 6.941.818 3.387 3.14 4.953 7.41 3.878m-252.26-1.58-4.698-8.327c-3.38 2.198-3.947 6.755-.268 9.343 2.018 1.42 4.323 2.34 4.967-1.015m-1.519 21.01-2.233.259 6.06 11.667 1.612-.592-2.266-11.333h-3.173m173.13-66.477c1.648-.595 3.297-1.19 6.06-2.19l-7.305-3.905-3.214 6.617c1.698 0 2.847 0 4.459-.522m-38.733 75.08 2.151 2.365c.466-.982 1.465-2.092 1.268-2.915-.27-1.124-1.306-2.21-2.273-2.99-1.654-1.335-3.51-2.422-5.473-3.743-2.143 4.19 1.523 5.186 4.327 7.283m139.38-5.676-1.547-2.173c-2.958 6.49 5.583 6.03 5.905 10.456.823-1.745 1.399-3.741.672-4.961-.836-1.402-2.824-2.117-5.03-3.321m-149.18 2.11-5.648-3.73c-2.532 5.94 5.784 5.529 5.351 10.425 3.431-2.365 3.299-4.234.297-6.694m-82.609-.38-5.047-3.385c-2.319 6.129 5.696 5.623 5.626 10.496 3.538-2.972 2.552-4.91-.579-7.11m182.48-122.83-3.86 1.45c.635.778 1.49 2.32 1.869 2.21 2.358-.68 4.61-1.732 6.897-2.66l-.572-2.006c-1.258.2-2.515.398-4.334 1.006m76.948 44.685c.374-1.1.864-2.183 1.016-3.313.027-.2-1.563-1.04-2.043-.814-2.052.968-5.785 2.62-5.635 3.311.933 4.29 3.627.131 5.532.686.158.046.31.116 1.13.13m-139.87-12.57c3.322.488 6.308.087 8.627-2.915-3.685-1.885-7.586-.737-8.627 2.915m-139.06.812 6.72-3.07-.588-1.928-7.474 1.063c.25 1.182.5 2.365 1.342 3.935m93.062-22.811c3.322.488 6.308.086 8.627-2.916-3.685-1.885-7.586-.737-8.627 2.916m-88.452 59.758c-2.394 1.087-6.323-.615-7.212 4.782 2.938-.534 5.432-.902 7.846-1.56.239-.066-.008-1.911-.634-3.222z" fill="#fefefe" id="path12" style="fill:none" transform="translate(-255 6.723) scale(.26458)"/><path d="M273.69 91c0 21.803-.099 43.108.086 64.409.036 4.108-1.091 5.585-5.307 5.365-6.26-.327-12.55-.085-19.075-.085V24.269h24.297v66.73z" fill="#8a8c8d" id="path14" transform="translate(-255 6.723) scale(.26458)"/><path d="M179 93.991h13.983c15.02.003 23.372 6.441 26.273 21.153 1.104 5.6.787 11.48 1.126 17.392-8.702.477-16.687.402-24.507 1.501-6.672.938-13.412 2.582-19.659 5.073-8.12 3.239-13.28 9.331-12.665 18.575-.59.399-.853.73-1.13.743-12.277.555-10.926 1.207-8.781-9.94 2.844-14.776 13.109-22.753 27.468-25.285 10.42-1.837 20.996-2.805 31.519-4.163-.579-6.112-6.261-11.54-14.495-11.902-12.293-.538-24.626-.275-36.941-.169-4.016.035-5.73 2.868-6.313 6.508-.273 1.696-.498 3.4-.745 5.1l-1.209-.058V93.99H179z" fill="#898b8c" id="path16" transform="translate(-255 6.723) scale(.26458)"/><path d="M199.27 25.425c10.107 1.754 16.571 7.43 18.911 16.763 1.74 6.938 2.036 14.238 2.947 21.168-11.313.951-21.254 1.535-31.12 2.736-4.22.514-8.44 1.943-12.384 3.608-9.943 4.195-13.245 9.006-14.2 19.838h-10.117c-2.278-16.045 8.763-30.918 25.713-34.592 5.683-1.232 11.454-2.138 17.226-2.855 5.57-.693 11.192-.95 16.8-1.399-1.34-7.62-8.15-12.55-17.75-12.656-10.329-.114-20.658-.041-30.987-.021-6.727.013-8.79 1.892-9.675 8.672-.135 1.034-.33 2.06-.498 3.09l-1.317-.02V25.31c15.517 0 30.774 0 46.452.114z" fill="#065085" id="path18" transform="translate(-255 6.723) scale(.26458)"/><path d="M51.852 67.904c.704 4.713.847 9.137 2.235 13.127 2.579 7.415 8.51 11.193 16.074 11.098 7.792-.098 13.335-3.678 16.273-10.959.802-1.989 1.691-4.12 1.741-6.205.318-13.307.718-26.626.434-39.927-.12-5.558-4.894-6.899-11.232-6.949 1.586-1.55 2.284-2.832 3.002-2.843 9.162-.137 18.327-.124 27.49-.03.702.006 1.394.904 2.09 1.388-.63.537-1.177 1.343-1.904 1.571-7.612 2.389-8.036 2.912-8.04 10.793-.005 10.164.084 20.33-.021 30.492-.18 17.334-10.15 27.204-27.374 28.544-23.52 1.83-31.96-12.619-32.426-30.482-.252-9.654-.066-19.319-.04-28.98.02-7.435-.94-8.676-7.892-10.377-.87-.213-1.58-1.085-2.363-1.651.742-.454 1.48-1.295 2.226-1.302 9.163-.09 18.328-.09 27.49 0 .834.008 1.66.806 2.97 1.488-10.732 5.182-10.732 5.182-10.732 17.225v23.978z" fill="#085186" id="path20" transform="translate(-255 6.723) scale(.26458)"/><path d="M350.43 99.317c-3.92.764-7.615 1.272-11.327 1.492-3.15.186-6.318.038-9.868.038v18.305c6.774 0 13.566.271 20.323-.095 4.531-.245 5.257 1.951 5.35 5.666.099 4.04-1.305 5.514-5.527 5.382-9.656-.303-19.33-.197-28.992-.047-3.907.06-5.42-1.657-5.413-5.372.034-18.664.037-37.328-.005-55.992-.008-3.713 1.587-5.566 5.381-5.552 9.999.04 20 .127 29.995-.04 4.483-.075 4.092 2.941 4.172 5.73.086 3.014-.16 5.586-4.454 5.416-6.803-.268-13.623-.071-20.826-.071v15.976h13.76c8.35 0 8.595.282 7.432 9.164z" fill="#064f85" id="path22" transform="translate(-255 6.723) scale(.26458)"/><path d="M392.88 87.263c3.782 1.788 7.304 3.276 10.684 5.033 9.48 4.929 13.02 11.253 11.866 20.872-1.028 8.576-6.887 14.76-16.451 17.09-7.483 1.823-14.86 1.265-21.951-1.793-4.637-2-6.902-7.594-4.636-11.951.394-.758 2.92-.89 4.289-.571 5.091 1.182 10.042 3.166 15.18 3.888 3.948.554 7.668-1.28 9.003-5.55 1.45-4.639-1.068-7.679-4.935-9.701-3.967-2.076-8.154-3.738-12.076-5.89-8.434-4.628-12.063-11.857-10.636-20.62 1.35-8.292 7.098-14.019 16.67-15.326 4.658-.636 9.653-.327 14.272.63 7.91 1.64 9.577 5.682 6.318 14.143-1.303-.518-2.584-1.103-3.913-1.54-3.127-1.026-6.217-2.398-9.432-2.859-4.135-.592-8.243.15-9.731 4.902-1.451 4.633 1.697 7.024 5.478 9.243z" fill="#064f85" id="path24" transform="translate(-255 6.723) scale(.26458)"/><path d="M472.76 74.557h-11.742v5.366c0 14.992-.172 29.987.107 44.973.081 4.386-1.542 5.674-5.485 5.306-1.322-.123-2.667-.084-3.996-.01-3.448.191-4.589-1.377-4.556-4.808.144-14.99.062-29.983.062-44.975v-5.854c-5.103 0-9.736-.236-14.334.067-4.553.3-4.274-2.885-4.272-5.564.003-2.859-.317-6.059 4.472-5.987 13.99.21 27.986.21 41.975-.004 4.48-.07 4.864 2.514 4.842 5.727-.02 3.065.036 6.324-4.61 5.773-.658-.078-1.332-.01-2.463-.01z" fill="#095186" id="path26" transform="translate(-255 6.723) scale(.26458)"/><path d="M126 110v47.69h-9.852V26.29H126V110z" fill="#868889" id="path28" transform="translate(-255 6.723) scale(.26458)"/><path d="M137.92 158h-5.708V26.25h9.558c.075 1.632.215 3.245.216 4.857.012 40.595.015 81.19-.004 121.79-.001 2.48.977 5.786-4.062 5.103z" fill="#868889" id="path30" transform="translate(-255 6.723) scale(.26458)"/><path d="M88.98 135c0-11.307.085-22.117-.055-32.924-.04-3.021.612-5.214 3.06-7.31 2.563-2.195 4.424-5.21 7.172-8.576 0 2.026-.011 3.411.002 4.796.181 18.447.375 36.894.544 55.342.068 7.486 1.025 8.61 8.65 10.046.554.105 1.051.518 1.426 1.71H79.131l-.14-.923c.834-.296 1.646-.7 2.504-.87 5.198-1.03 7.38-3.428 7.552-8.822.127-3.985-.034-7.98-.067-12.47z" fill="#8d8f90" id="path32" transform="translate(-255 6.723) scale(.26458)"/><path d="M42.351 87.667c1.341 1.924 2.143 4.084 3.693 5.086 5.356 3.463 5.22 8.596 5.146 13.976-.164 11.969-.113 23.942-.18 35.913-.06 10.972-.03 11.043 9.763 15.321H30.13c.35-.662.438-1.125.654-1.196 9.516-3.097 9.455-3.093 9.531-13.417.132-17.777.341-35.554.557-53.33.013-1.05.369-2.097.566-3.144.137.034.3.033.407.11.128.095.209.255.506.682z" fill="#8b8d8e" id="path34" transform="translate(-255 6.723) scale(.26458)"/><path d="M225.21 191.86c1.933.03 3.865.059 6.514.29.898 1.706 1.079 3.21 1.26 4.714-14.984.048-29.968.165-44.95.09-3.046-.016-4.962.556-6.722 3.506-3.775 6.326-7.999 6.044-15.175-.86 2.845.533 5.141 1.469 7.306 1.226 2.139-.24 4.144-1.672 6.626-2.765-5.507-2.856-6.46-9.96-2.162-13.117.743-.546 3.29.013 3.835.835 1.038 1.566 1.23 3.69 1.87 5.919h6.908l-.548-6.465 1.709-.317 1.982 6.833h9.96c-2.336-1.876-3.762-3.312-5.447-4.314-3.845-2.288-4.08-6.125-.22-8.477 1.922-1.171 4.12-1.892 6.272-2.851 1.88 5.13-3.058 4.277-4.752 6.128 6.52 10.204 6.52 10.204 13.987 9.427l-.434-6.44 1.687-.28 2.056 7.008c1.371 0 3.286 0 6.027-.008a88.814 88.814 0 0 0 2.411-.082z" fill="#26649a" id="path36" transform="translate(-255 6.723) scale(.26458)"/><path d="M138.99 238.87c-15.324.049-30.678.636-45.952-.214-4.066-.226-7.897.317-11.819.441-3.579.114-5.38-1.347-5.642-4.732-.422-5.44-.69-10.892-1.023-16.34l2.267-.21 1.53 15.42c7.206 1.632 7.8 1.35 10.828-5.77.195 1.901.288 2.86.393 3.818.307 2.813 1.767 3.471 4.047 1.944 2.62-1.755 4.994-3.904 7.709-5.479 2.02-1.172 5.135-2.964 6.463-2.206 1.77 1.012 2.295 4.222 3.314 6.506.19.425.19.935.335 1.709 1.29.076 2.577.178 3.865.22 1.126.038 2.253.009 3.185.009l-.509-6.948 1.63-.314 2.096 6.954h6.637v-6.748l1.432-.137 1.957 7.16c1.418 0 3.333 0 5.98.201.914 1.707 1.096 3.212 1.278 4.716m-38.934-6.649-1.327 1.158.362.937 9.498-1.297c-3.633-3.615-3.633-3.615-8.533-.798z" fill="#27659a" id="path38" transform="translate(-255 6.723) scale(.26458)"/><path d="M365.98 238.86c-10.577-.244-21.247-1.412-31.692-.352-5.424.55-10.844-2.04-16.037.514-.868.426-1.88 1-2.32 1.79-2.998 5.383-12.324 7.465-16.57 3.146-1.582-1.61-1.67-4.687-2.551-7.44 2.963 2.243 4.837 4.721 7.045 5.068 2.87.451 6.284-.247 8.896-1.57 1.058-.537.78-4.024.812-6.172.026-1.791-.385-3.588-.602-5.382l1.656-.386 2.21 6.357 5.883-2.836c3.759 4.312 7.735 3.55 10.297-1.772l2.937 5.64 1.339-7.559 1.26.056.892 5.78h9.818l.498-.868c-2.556-1.25-5.112-2.502-7.583-3.712 3.19-4.27 5.24-4.647 9.189-.24 3.54 3.95 7.378 5.954 13.358 5.23.907 1.703 1.086 3.205 1.264 4.708z" fill="#256398" id="path40" transform="translate(-255 6.723) scale(.26458)"/><path d="M270.16 187.9c.706-.476 1.828-.81 2.05-1.452 1.194-3.471 3.78-4.23 6.737-3.152 3.169 1.155 3.386 3.728 1.958 6.56-.204.404-.168.93-.353 2.092 3.252 0 6.318 0 10.134.2.932 1.707 1.114 3.211 1.295 4.716-4.687-.443-9.367-1.083-14.064-1.238-1.977-.065-3.98 1.267-5.986 1.316-7.15.173-14.31.147-21.461-.003-1.322-.028-3.658-.81-3.775-1.53-1.05-6.425-1.708-12.913-2.48-19.383l2.501-.254c.341 3.123.883 6.24.982 9.37.216 6.836.124 6.84 6.88 6.838h4.825l-.318-6.983 1.654-.23 1.97 7.275c1.925-.168 4.006-.35 6.234-1.26.504-1.446.86-2.164 1.217-2.882z" fill="#27659a" id="path42" transform="translate(-255 6.723) scale(.26458)"/><g fill="#28659a" id="g50" transform="translate(-255 6.723) scale(.26458)"><path d="M426.31 231.07c.399 2.796.654 5.21.82 6.788-4.746.423-8.847.928-12.963 1.119-5.19.24-10.263-1.402-15.63-.153-3.733.87-4.374-.463-5.688-6.09l-8.372.801-.809-1.577 9.404-12.737c.417 3.144.783 6.004 1.178 8.86.874 6.332 1.852 6.914 9.6 4.755l-3.796-1.981c.064-3.895 1.613-6.702 5.988-5.765 5.176 1.109 3.848 4.796 1.891 8.974 3.515-.22 6.789.41 9.1-.8 2.386-1.25 3.836-4.288 6.294-7.27 1.24 2.051 2.04 3.373 2.983 5.076z" id="path44"/><path d="M120.01 197.02c-3.162 0-5.828.004-8.493 0-5.857-.013-6.95-.91-7.213-6.824-.21-4.751-.042-9.52-.042-14.28l1.446-.146c.345 3.123.892 6.24.992 9.371.218 6.844.125 6.847 6.888 6.846h4.817l-.308-6.984 1.654-.224 1.899 7.039c.836.05 1.807.15 2.779.16 2.285.025 4.57.008 7.275-1.146l-7.364-3.61c2.42-4.055 4.763-4.843 7.994-1.151 2.782 3.178 8.773 4.32 7.544 10.949H120.01z" id="path46"/><path d="M337.8 191.98c1.84-1.491 3.279-2.977 4.322-4.054l2.804 5.596 1.35-7.626 1.31.106v11.266c-5.259-.68-10.623-1.415-16.002-2.013-.68-.076-1.445.555-2.162.876-6.156 2.754-8.808 1.287-10.598-5.182l-8.423.432c-.234-.53-.467-1.062-.7-1.593l9.398-12.49c.376 2.758.533 5.41 1.148 7.953.55 2.274 1.211 5.971 2.523 6.307 2.613.669 5.707-.539 9.24-1.067 1.178.327 3.283.911 5.79 1.49z" id="path48"/></g><path d="M399.98 196.87c-4.676-.423-9.346-1.041-14.03-1.18-2.062-.062-4.14 1.17-6.233 1.255-4.107.166-8.231-.06-12.557-.848.123-1.84.453-2.957.784-4.074h7.097c-1.238-3.884-2.323-7.292-3.41-10.699l2.506-.896c1.28 3.596 2.56 7.192 4.062 11.417 5.898 2.693 5.762-6.213 10.888-6.884l3.664 6.995c1.622 0 3.432 0 5.966.201.904 1.706 1.083 3.21 1.263 4.713z" fill="#276399" id="path52" transform="translate(-255 6.723) scale(.26458)"/><path d="M431.74 224.39c.126 3.234.25 6.031.392 9.196h14.086l.5-.71-7.238-3.673c1.93-3.786 4.42-4.798 7.385-1.594 2.997 3.238 8.714 4.696 8.168 11.388-7.357 0-14.603.066-21.846-.08-.954-.018-2.615-1.01-2.715-1.723-.895-6.36-1.512-12.758-2.21-19.146l2.119-.3c.452 2.068.905 4.136 1.359 6.642z" fill="#28659a" id="path54" transform="translate(-255 6.723) scale(.26458)"/><path d="M231.91 239.36c1.398-3.99 4.085-5.427 7.78-5.376 3.29.046 6.58.01 10.137.01v4.89H239.49l1.043 1.165c-1.67 2.267-2.897 5.74-5.103 6.55-4.471 1.645-9.979 3.475-13.729-1.163-1.392-1.722-.49-5.298-.64-8.115 2.749 2.34 4.475 4.85 6.71 5.443 2.643.703 5.725-.248 9.831-.58-2.764-1.162-4.266-1.793-5.691-2.824z" fill="#256398" id="path56" transform="translate(-255 6.723) scale(.26458)"/><path d="M277.99 238.87c-6.466.05-12.94.28-19.394.02-1.576-.064-4.197-1.51-4.436-2.702-1.054-5.27-1.48-10.672-1.952-16.042-.066-.751.872-1.59 2.697-2.324l1.508 15.935h11.091l-.576-6.667 1.636-.355 2.313 7.204c1.275 0 3.184 0 5.825.205.918 1.711 1.103 3.218 1.289 4.726z" fill="#2b679d" id="path58" transform="translate(-255 6.723) scale(.26458)"/><path d="M164.99 196.87c-4.553-.237-8.125.354-10.964 5.122-2.945 4.945-7.104 3.999-13.476-2.462 4.793 2.22 9.202 2.386 12.812-1.711-4.73-2.619-5.65-8.412-1.98-12.503 1.875-2.09 3.548-1.675 4.6.686.784 1.758 1.1 3.724 1.724 5.954 1.691 0 3.486 0 6.011.201.912 1.705 1.093 3.21 1.274 4.713z" fill="#26649a" id="path60" transform="translate(-255 6.723) scale(.26458)"/><path d="M175.43 284.17c2.648-.155 4.972-.155 6.909-.155l-1.581 7.686h7.326l-1.332-7.574h7.108c-2.758 3.188-2.671 14.593.179 17.717h-7.25l1.432-8.467h-7.208l1.1 8.465h-6.86c2.659-3.151 2.525-14.545.177-17.672z" fill="#565057" id="path62" transform="translate(-255 6.723) scale(.26458)"/><path d="M65.049 119.1c5.628 0 10.77.13 15.901-.044 3.56-.12 4.441 1.307 3.213 4.782h-28.25c-1.301-3.145-.883-5.038 3.178-4.759 1.814.125 3.644.021 5.958.021z" fill="#8f9192" id="path64" transform="translate(-255 6.723) scale(.26458)"/><path d="m202.22 234.05-.315 4.956c-4.851 0-9.651-.16-14.435.05-3.963.174-5.121-1.476-4.088-5.278h8.498l-3.179-10.453 2.538-.835 3.996 11.464c.915 0 2.827 0 5.515.013 1.009.036 1.24.06 1.47.083z" fill="#256398" id="path66" transform="translate(-255 6.723) scale(.26458)"/><path d="m175.19 270.05-1.354 6.824h-4.378v-17.897c2.426 0 5.492-.431 8.376.11 3.569.669 4.53 3.723 4.027 6.938-.56 3.575-2.5 5.778-6.285 4.313 4.05-2.144 2.405-5.27 2.043-7.962-.065-.48-1.487-.777-2.282-1.158-.473 2.26-1.062 4.506-1.343 6.79-.077.622.772 1.358 1.196 2.042z" fill="#5f5a61" id="path68" transform="translate(-255 6.723) scale(.26458)"/><path d="m392.48 301.89-3.926-1.508V284.21h4.044l.382 5.115c2.801 1.15 5.859 1.472 6.865 3.078 1.044 1.666.369 4.638-.15 6.903-.143.627-2.404.769-3.344.723.194-2.662.04-4.914-.116-7.166-.53-.26-1.06-.52-2.245-.464-.94 3.374-1.225 6.433-1.51 9.491z" fill="#555a63" id="path70" transform="translate(-255 6.723) scale(.26458)"/><path d="M74.172 258.53c.909 1.034 1.816 1.673 2.724 2.313l.955-.96v3.198l-3.389-1.21v8.57l8.303-2.09c-.424 3.245-1.078 3.376-14.513 2.416 2.65-3.172 2.588-14.407-.097-17.491 11.776-1.027 13.26-.76 13.713 2.061l-7.383-1.735c-.136 1.966-.225 3.25-.313 4.928z" fill="#5b4e4f" id="path72" transform="translate(-255 6.723) scale(.26458)"/><path d="M70.797 232.71c-3.898 3.235-7.68 6.107-12.442 9.725l2.467-6.087c-4.045-2.94-1.939-6.086.235-9.177 2.058-2.926 4.592-2.762 8.607-.058l-7.27 3.08c.845 2.252 2.457 3.055 5.314 1.822.86-.371 2.125.196 3.089.695z" fill="#27659a" id="path74" transform="translate(-255 6.723) scale(.26458)"/><path d="M361.7 268.84c-.38.734-.728 2.083-1.146 2.106-3.286.176-6.585.097-9.802.097v-17.65c2.707-.128 2.707-.128 3.807 6.37 2.01 0 3.947 0 6.147.729.507 3.268.75 5.808.994 8.348m-4.673-7.742c-.67 2.398-1.467 4.774-1.874 7.216-.06.358 1.73 1.024 3.318 1.117-.218-2.767-.436-5.535-1.444-8.333z" fill="#695e59" id="path76" transform="translate(-255 6.723) scale(.26458)"/><path d="M275.96 284.04c.452-.015.904-.03 1.83.343 2.939 3.701 2.77 14.452.205 17.607-.452.005-.905.01-1.846-.377-3.145-3.553-2.954-14.527-.189-17.573z" fill="#f5f5ed" id="path78" transform="translate(-255 6.723) scale(.26458)"/><path d="M308.33 253.53c4.522-.405 8.849-.571 13.169-.464.94.023 1.855 1.026 2.314 2.372l-5.966-1.827c1.039 6.227-1.47 11.956 1.889 17.284h-7.276c3.128-5.199.647-10.846 1.763-17.243l-6.09 1.986c0-.465 0-1.118.197-2.109z" fill="#565057" id="path80" transform="translate(-255 6.723) scale(.26458)"/><path d="M54.357 284.01c.031 4.74-.726 9.468-.477 14.141.073 1.37 3.001 2.588 4.17 3.517-6.892 1.14-8.819-.542-8.928-8.46-.041-2.994-.39-5.984-.618-9.232.855 0 3.152 0 5.853.034z" fill="#615753" id="path82" transform="translate(-255 6.723) scale(.26458)"/><path d="M329.19 292.3c2.518-7.125 6.05-9.094 13.281-7.77-7.057 1.21-8.91 3.197-8.562 9.172.32 5.506 1.959 6.999 8.2 7.476-6.973 2.478-12.194-.942-12.92-8.878z" fill="#5f5a61" id="path84" transform="translate(-255 6.723) scale(.26458)"/><path d="M158.84 265.74c.467 1.333.933 2.221 1.398 3.11.554-.727 1.52-1.42 1.586-2.188.208-2.416.076-4.86.076-7.484h3.223v11.833c-1.97 0-4.356.54-6.28-.17-1.56-.576-3.17-2.47-3.672-4.112-.691-2.26-.36-4.832-.477-7.495h4.145v6.506z" fill="#58555b" id="path86" transform="translate(-255 6.723) scale(.26458)"/><path d="M239.04 261.29c.004 3.362.004 6.277.004 9.946-2.813-.508-7.268-.028-8.992-1.971-1.866-2.104-1.184-6.467-1.638-10.035h4.518v10.79c4.449-3.675 2.636-7.2 2.588-11.583 1.376.942 2.446 1.674 3.52 2.853z" fill="#58555b" id="path88" transform="translate(-255 6.723) scale(.26458)"/><path d="M429.01 259.56c-.974.382-2.83.968-2.796 1.116 1.441 6.212-3.375 6.923-7.474 8.78-.635.103-1.07-.135-1.505-.373-.03-.87.248-1.921-.14-2.58-2.296-3.899-.79-7.219 3.72-7.49 2.406-.146 4.848.286 7.736.474.462.016.459.073.459.073z" fill="#695e59" id="path90" transform="translate(-255 6.723) scale(.26458)"/><path d="M184.46 72.618c-2.151 3.523-4.286 6.683-6.697 10.252l-7.961-3.992c4.044-4.93 8.916-6.755 14.658-6.26z" fill="#095186" id="path92" transform="translate(-255 6.723) scale(.26458)"/><g fill="#61595c" id="g102" transform="translate(-255 6.723) scale(.26458)"><path d="M332.34 268.89c.965.046 1.612.046 2.258.046l.053 1.268c-2.034 0-5.137.807-5.876-.171-1.45-1.92-2.373-4.967-1.98-7.287.252-1.491 3.42-3.69 4.96-3.455 1.885.287 3.434 2.784 5.129 4.326l-.916 1.275-6.864.357c1.283 1.58 2.1 2.587 3.236 3.641z" id="path94"/><path d="M125.15 268.33c1.354.44 2.466.616 3.58.793l-.022 1.35c-2.094-.123-5.217.546-6.053-.543-1.444-1.88-2.25-5-1.807-7.31.285-1.479 3.483-3.585 5.029-3.328 1.845.306 3.32 2.837 4.956 4.404l-.964 1.178-6.184.386c.496 1.136.86 1.972 1.465 3.07z" id="path96"/><path d="M191.72 260.06c1.176 1.42 2 2.714 3.205 4.61l-6.845.638-.642 1.155 6.036 4.045c-3.041-.241-6.432.327-7.057-.735-1.288-2.185-1.934-5.467-1.281-7.874.649-2.392 3.222-4.24 6.584-1.84z" id="path98"/><path d="M218.28 260.22c5.152-1.97 6.87-.893 7.732 4.67l-5.816.298-.718 1.164 4.962 3.406.168.93c-2.225-.306-5.076.143-6.545-1.076-3.142-2.605-2.696-6.062.217-9.392z" id="path100"/></g><path d="M142.36 256.51c2.235 1.797 4.42 3.213 6.567 4.684 4.288 2.937 4.095 6.054-1.205 9.382 2.941-5.075-.899-5.782-3.676-7.277-5.711-3.075-6.218-6.043-1.265-9.456-.21.993-.349 1.652-.421 2.667z" fill="#58555b" id="path104" transform="translate(-255 6.723) scale(.26458)"/><path d="M367.71 191.81c-.09 1.328-.42 2.445-.792 3.927-1.22 1.294-2.936 1.978-3.488 3.191-3.285 7.228-9.086 8.067-14.58 1.924 6.68 1.686 9.87.07 13.8-6.197.912-1.454 3.177-2.06 5.06-2.845z" fill="#2b679d" id="path106" transform="translate(-255 6.723) scale(.26458)"/><path d="M275.53 284.02c-2.33 3.066-2.52 14.04.286 17.575-2.335.374-4.82.374-6.675.374V284c1.513 0 3.733 0 6.389.02z" fill="#4d4d5c" id="path108" transform="translate(-255 6.723) scale(.26458)"/><path d="M278.43 302c2.127-3.166 2.296-13.917-.303-17.607 2.325-.376 4.785-.376 7.068-.376-2.157 6.033-1.296 11.793-.658 17.993-1.198 0-3.433 0-6.107-.01z" fill="#4d4d5c" id="path110" transform="translate(-255 6.723) scale(.26458)"/><g fill="#61595c" id="g124" transform="translate(-255 6.723) scale(.26458)"><path d="M263.12 268.91c-1.826 2.35-3.842 3.167-5.199 1.365-1.475-1.961-2.37-4.829-2.358-7.295.01-2.056 1.58-3.267 4.595-2.637 2.857.597 5.302.346 4.85 4.478l-5.749.378-.717 1.18c1.441.853 2.882 1.704 4.578 2.531z" id="path112"/><path d="M294.71 268.72c1.133.165 1.953.209 2.773.252v1.286c-1.956 0-4.84.794-5.667-.173-1.49-1.74-2.21-4.518-2.3-6.899-.038-1.013 2.873-3.267 3.49-2.971 2.168 1.04 7.04-1.227 5.886 4.576l-6.358.501c.743 1.32 1.303 2.313 2.176 3.428z" id="path114"/><path d="M310.83 292.99c4.636-3.434 8.37-2.203 9.205 2.879l-5.853.318-.72 1.167 5.739 3.935c-2.465 0-4.87.693-6.47-.148-3.05-1.605-3.328-4.663-1.9-8.151z" id="path116"/><path d="M166.06 295.25c-1.99.6-3.928.846-5.866 1.092l-.73 1.018c1.66 1.14 3.319 2.282 4.982 3.426-2.847 2.258-5.743 1.985-7.694-1.73-1.533-2.917-1.273-6.745 1.913-7.576 1.954-.51 7.078-2.129 7.395 3.77z" id="path118"/><path d="M104.83 292.99c4.636-3.434 8.37-2.203 9.205 2.878l-5.853.32c-.234.392-.467.786-.7 1.18l5.719 3.921c-2.465 0-4.87.693-6.47-.148-3.05-1.605-3.328-4.663-1.901-8.151z" id="path120"/><path d="M445.31 265.04c-1.662.073-2.946.143-4.23.213l-.644 1.211 4.806 3.188.166.888c-2.232-.325-5.078.094-6.563-1.134-2.76-2.281-2.844-6.118-.125-8.275 1.531-1.215 4.79-.252 7.27-.27-.1 1.392-.202 2.784-.68 4.179z" id="path122"/></g><g fill="#695e59" id="g132" transform="translate(-255 6.723) scale(.26458)"><path d="M403.79 300.59c.26-5.604.26-10.92.26-16.412h4.355v17.888c-1.11-.1-3.171-.284-5.23-.485-.008 0-.032-.248.02-.34.08-.14.22-.245.595-.651z" id="path126"/><path d="M395.24 256.7c-.338-1.403-.674-2.388-1.072-3.558h5.33v17.75h-4.256c0-4.596 0-9.185-.002-14.192z" id="path128"/><path d="M117.1 266.48c.358 1.716.715 2.993 1.11 4.404h-5.55v-17.617h4.44v13.213z" id="path130"/></g><g fill="#6a6363" id="g146" transform="translate(-255 6.723) scale(.26458)"><path d="M199.09 292.26c1.55-.923 3.096-2.421 4.06-2.111 1.4.45 2.978 2.028 3.401 3.446.672 2.255.454 4.775.696 8.465l-6.815-2.368 1.525-8.27-4.83 1.567.014.044c.562-.18 1.124-.36 1.949-.773z" id="path134"/><path d="M242.77 297.58c.03 1.572.058 2.735.086 3.897l-7.187-1.695c1.166-2.228 2.135-3.644 2.639-5.209.29-.903-.168-2.048-.29-3.085-.87.105-1.798.055-2.593.356-.805.305-1.48.956-2.484.27 2.613-.56 5.424-1.92 7.754-1.34 1.15.285 1.41 4.15 2.075 6.806z" id="path136"/><path d="M360.29 299.89c-2.745 5.299-4.37-.655-7.49-.315 1.018-1.986 1.96-3.406 2.462-4.967.292-.908.066-2.13-.338-3.025-.12-.265-1.706-.074-2.498.229-.822.314-1.494 1.018-2.286 1.404.743-.438 1.468-.912 2.234-1.306 1.308-.671 2.783-1.982 3.926-1.748 1.262.258 2.792 1.776 3.198 3.063.625 1.983.392 4.237.792 6.665z" id="path138"/><path d="M378.41 298.72c.666-1.621 1.51-2.807 1.871-4.125.257-.936-.14-2.052-.246-3.087-.874.09-1.81.016-2.606.316-.818.31-1.497.985-2.684 1.81 2.897-2.375 5.548-6.285 8.6-2.419 1.85 2.345 1.568 6.374 2.234 9.598-3.44 3.138-4.877-1.019-7.169-2.093z" id="path140"/><path d="M421.49 292.68c.175 1.879.29 3.366.255 4.85-.033 1.408-.222 2.812-.343 4.219-1.406-.538-2.818-1.06-4.216-1.619-.596-.238-1.164-.55-1.71-.812.517-2.676 1.018-5.262 1.52-7.849l-4.13 1.244c2.158-1.903 4.87-5.602 8.624-.033z" id="path142"/><path d="M455.05 292.58c-.668.071-1.1.225-.42-.016 5.404-2.693 6.017-2.913 6.424-1.784 1.164 3.237 1.785 6.67 3.03 11.679l-8.304-3.071c1.052-1.9 2.014-3.312 2.615-4.863.3-.773.261-2.071-.214-2.635-.42-.498-1.657-.35-2.535-.362-.115-.002-.24.738-.596 1.052z" id="path144"/></g><path d="M152.18 301.93c-3.572.267-4.213-1.69-4.208-4.365.005-2.338-.202-4.675-.357-7.855l4.17-3.241c-.236-.358-.088-.14.053.082 2.077 3.264-.228 6.547.049 9.814.155 1.836.429 3.662.293 5.565z" fill="#5d5968" id="path148" transform="translate(-255 6.723) scale(.26458)"/><g fill="#3971a8" id="g164" transform="translate(-255 6.723) scale(.26458)"><path d="M281.83 224.8c.23-2.534.514-4.67.798-6.806l1.286.164c.5 6.845 3.83 13.67-.448 20.578-.527-4.513-1.054-9.025-1.636-13.936z" id="path150"/><path d="M405.82 176.45c.784 4.733 1.658 9.157 1.977 13.621.16 2.244-.688 4.56-2.238 6.673-.691-5.313-1.58-10.612-1.946-15.947-.102-1.492 1.336-3.09 2.207-4.347z" id="path152"/><path d="M144.03 234.95c-.437-3.879-1.04-7.323-1.234-10.79-.112-1.998.437-4.033 1.397-5.998 1.314 6.868 4.447 13.597.26 20.657a125.2 125.2 0 0 1-.423-3.87z" id="path154"/><path d="M373 224.2c.286 5.167 2.282 10.067-1.34 14.537.363-6.88-3.63-13.67.002-20.615.433 1.888.867 3.776 1.338 6.078z" id="path156"/><path d="M179.91 233.67c-.507 2.055-.98 3.68-1.455 5.305l-1.375-.258c1.074-6.868-3.279-13.686.917-20.634.648 5.052 1.297 10.105 1.913 15.587z" id="path158"/><path d="M299.22 184.73c.064 4.3.064 8.171.064 12.042l-2.207-.057c1.005-6.867-3.098-13.677.743-20.619.445 2.735.89 5.47 1.4 8.634z" id="path160"/><path d="M209.74 230.19c-.25 3.19-.558 5.944-.866 8.699l-1.81-.18c1.043-6.866-3.108-13.684.804-20.62.605 3.888 1.21 7.777 1.872 12.102z" id="path162"/></g><g fill="#595754" id="g172" transform="translate(-255 6.723) scale(.26458)"><path d="M197.51 268.36c.06-3.311.06-6.211.06-9.273 3.443-.63 5.086.482 3.974 4.79-.524 2.03-.09 4.31-.09 6.72-3.82.86-3.82.86-3.944-2.237z" id="path166"/><path d="M247.46 259.09c.556 1.755.8 3.416.93 5.085.156 2.033.216 4.074.336 6.458h-4.543v-11.481c.77-.04 1.842-.097 3.277-.062z" id="path168"/><path d="M121.23 297.14c.32 1.749.646 3.078 1.028 4.635h-5.046v-11.45c5.028-.4 5.161-.196 4.018 6.815z" id="path170"/></g><path d="M168.53 240.58a241.59 241.59 0 0 0 3.828-4.625c.576 4.7-.408 9.03-4.82 10.18-3.039.794-6.744-.966-10.151-1.584l.381-1.848c1.849.42 3.805 1.419 5.516 1.1 1.783-.33 3.331-1.932 5.246-3.223z" fill="#2b679d" id="path174" transform="translate(-255 6.723) scale(.26458)"/><path d="m280.97 260.03 1.12-6.98 2.728.134.735 16.246 1.576.48c-1.627.196-3.254.39-5.109.072-.41-.737-.643-.883-.74-1.298.043-3.143-.097-5.936-.263-8.718-.026.01-.047.064-.047.064z" fill="#6d5d50" id="path176" transform="translate(-255 6.723) scale(.26458)"/><g fill="#3c6da4" id="g188" transform="translate(-255 6.723) scale(.26458)"><path d="M292.4 196.75c-.595-1.39-.777-2.895-1.26-4.63-.303-.232-.202-.708.098-1.102.351-.964.403-1.534.455-2.105l-.454-.021-.2 1.79-3.321-16.72c4.788 2.732 4.418 2.708 4.098 7.527-.212 3.203.936 6.479 1.244 9.744.168 1.777-.148 3.6-.66 5.517z" id="path178"/><path d="M165.4 196.75c-.595-1.39-.776-2.894-1.26-4.629-.302-.23-.202-.71.099-1.103.352-.964.403-1.534.454-2.103l-.447-.022-.205 1.789-3.322-16.702c4.787 2.716 4.417 2.692 4.097 7.51-.212 3.204.936 6.479 1.244 9.744.168 1.777-.148 3.6-.66 5.516z" id="path180"/><path d="M366.4 238.75c-.593-1.39-.772-2.893-1.251-4.628-.3-.232-.206-.71.094-1.103.35-.964.4-1.533.45-2.103l-.439-.02-.206 1.785-3.329-16.7c4.789 2.716 4.419 2.692 4.1 7.51-.213 3.205.936 6.48 1.244 9.745.167 1.777-.15 3.6-.663 5.514z" id="path182"/><path d="M233.4 196.75c-.595-1.39-.776-2.894-1.26-4.629-.302-.23-.202-.71.099-1.103.352-.964.403-1.534.454-2.103l-.447-.022-.205 1.789-3.322-16.702c4.787 2.716 4.417 2.692 4.097 7.51-.212 3.204.936 6.479 1.244 9.744.168 1.777-.148 3.6-.66 5.516z" id="path184"/><path d="M278.4 238.76c-.598-1.39-.783-2.897-1.272-4.635-.304-.23-.196-.703.103-1.097.353-.965.406-1.536.459-2.107l-.469-.023-.192 1.796-3.306-16.71c4.78 2.717 4.41 2.693 4.09 7.511-.213 3.204.936 6.479 1.244 9.744.167 1.777-.147 3.6-.657 5.52z" id="path186"/></g><path d="m301.97 291.03 1.12-6.98 2.728.134.735 16.252 1.576.475c-1.627.195-3.254.39-5.109.071-.41-.737-.643-.882-.74-1.298.043-3.143-.097-5.936-.263-8.718-.026.011-.047.064-.047.064z" fill="#6d5d50" id="path190" transform="translate(-255 6.723) scale(.26458)"/><path d="M139.4 238.75c-.595-1.39-.777-2.895-1.26-4.63-.303-.232-.202-.708.098-1.101.351-.965.403-1.535.455-2.106l-.454-.021-.2 1.79-3.318-16.705c4.785 2.717 4.415 2.693 4.095 7.51-.212 3.205.936 6.48 1.244 9.745.168 1.777-.148 3.6-.66 5.517z" fill="#3c6da4" id="path192" transform="translate(-255 6.723) scale(.26458)"/><path d="M400.4 196.75c-.594-1.39-.774-2.894-1.255-4.63-.302-.232-.205-.707.095-1.1.35-.964.401-1.535.452-2.105l-.447-.022-.202 1.789-3.323-16.703c4.787 2.716 4.417 2.692 4.097 7.51-.212 3.204.937 6.48 1.244 9.745.168 1.777-.148 3.6-.661 5.516z" fill="#3c6da4" id="path194" transform="translate(-255 6.723) scale(.26458)"/><path d="M416.96 269.29c.71.025 1.145.263 1.818.55 2.214.1 4.347-.28 6.109.361 1.136.413 1.727 2.325 2.562 3.564-1.135.49-2.263 1.38-3.405 1.398-3.837.061-7.887.08-7.084-5.873z" fill="#615753" id="path196" transform="translate(-255 6.723) scale(.26458)"/><path d="M225.16 191.45c-.476.44-1.004.464-1.929.467-.396-.022-.293-.5.008-.894.352-.964.404-1.534.455-2.104l-.448-.021-.204 1.788c-.54-5.679-3.97-11.047-2.217-17.398 3.46 3.382 3.132 3.366 2.885 8.41-.15 3.082.891 6.223 1.45 9.752z" fill="#3c6da4" id="path198" transform="translate(-255 6.723) scale(.26458)"/><g fill="#5d5968" id="g208" transform="translate(-255 6.723) scale(.26458)"><path d="M70.942 290.15c2.425.454 6.004.114 6.996 1.555 1.368 1.987.755 5.321 1.058 8.071.066.604.415 1.177.747 2.066-2.038 0-3.968 0-6.332-.178-.436-.177-.443-.388-.029-.474.81-2.685 1.204-5.285 1.6-7.885-.954-.023-1.907-.047-2.997-.374-.44-1.13-.741-1.955-1.043-2.78z" id="path200"/><path d="M249.94 290.15c2.425.454 6.004.114 6.996 1.555 1.368 1.987.755 5.321 1.058 8.071.066.604.415 1.177.747 2.066-2.038 0-3.968 0-6.333-.177-.435-.178-.442-.39-.028-.474.81-2.686 1.204-5.286 1.6-7.886-.954-.023-1.907-.047-2.997-.374-.44-1.13-.741-1.955-1.043-2.78z" id="path202"/><path d="M368.94 259.15c2.425.454 6.004.114 6.996 1.555 1.368 1.987.755 5.321 1.058 8.071.066.604.415 1.177.747 2.066-2.038 0-3.968 0-6.333-.178-.435-.177-.442-.388-.028-.474.81-2.685 1.204-5.285 1.6-7.885-.954-.023-1.907-.047-2.997-.374-.44-1.13-.741-1.955-1.043-2.781z" id="path204"/><path d="M428.94 290.15c2.425.454 6.004.114 6.996 1.555 1.368 1.987.755 5.321 1.058 8.071.066.604.415 1.177.747 2.066-2.038 0-3.968 0-6.333-.177-.435-.178-.442-.39-.028-.474.81-2.686 1.204-5.286 1.6-7.886-.954-.023-1.907-.047-2.997-.374-.44-1.13-.741-1.955-1.043-2.78z" id="path206"/></g><path d="M202.48 233.9c-.495.132-.726.11-1.302.043-1.333-4.502-2.503-8.931-3.212-13.434-.255-1.615.603-3.406.98-5.25 3.688 2.429 4.192 4.753 2.772 8.692-1.003 2.78.591 6.495.762 9.949z" fill="#3c6da4" id="path210" transform="translate(-255 6.723) scale(.26458)"/><g fill="#665c59" id="g220" transform="translate(-255 6.723) scale(.26458)"><path d="M209.25 266.62c-.169-2.721-.338-5.033-.518-7.49h4.05l.828 11.76h-5.257c.304-1.31.6-2.585.897-4.27z" id="path212"/><path d="M87.044 291.41c.182 3.715.332 6.995.488 10.432H82.69v-12.081c1.207.34 2.764.777 4.355 1.65z" id="path214"/><path d="M144.09 295.8c.24 2.257.482 4.075.74 6.03h-5.157v-11.664h4.417v5.634z" id="path216"/><path d="M429.33 259.87c-.319-.313-.316-.37-.317-.398 1.44-.228 2.882-.427 4.62-.667l1.133 12.071h-5.117c0-3.564 0-7.128-.319-11.007z" id="path218"/></g><path d="M281.09 269.04c.282.066.515.21.786.623-1.988.117-5.256.803-5.887-.188-1.22-1.919-1.598-4.912-1.134-7.22.52-2.592 2.767-4.063 5.939-2.547.17.328.192.275-.188.28-4.126 3.153-3.734 7.266.484 9.052z" fill="#5d5968" id="path222" transform="translate(-255 6.723) scale(.26458)"/><path d="M302.09 300.04c.282.066.515.21.786.623-1.988.117-5.256.803-5.887-.188-1.22-1.919-1.598-4.912-1.134-7.22.52-2.592 2.767-4.063 5.939-2.547.171.328.192.275-.188.28-4.126 3.153-3.734 7.266.484 9.052z" fill="#5d5968" id="path224" transform="translate(-255 6.723) scale(.26458)"/><path d="M270.12 187.47c-.31 1.157-.666 1.875-1.049 2.91-1.142-5.269-2.258-10.854-3.375-16.44 4.706 2.781 4.597 2.768 4.001 7.664-.215 1.767.231 3.615.423 5.866z" fill="#3c6da4" id="path226" transform="translate(-255 6.723) scale(.26458)"/><g fill="#5f5a61" id="g234" transform="translate(-255 6.723) scale(.26458)"><path d="M447.97 301.29c-3.793 1.67-6.269.303-7.511-2.903-1.191-3.073-.305-5.753 3.441-7.996 0 2.128-.545 3.969.122 5.08 1.122 1.869 3.016 3.272 4.576 4.88.058.06.054.242.008.329-.077.142-.213.253-.635.61z" id="path228"/><path d="M345.31 270.71c-3.927.898-6.25-.668-7.068-4.055-.708-2.932.065-5.468 3.573-6.941.481 3.937-1.274 8.757 4.62 9.506-.26.438-.52.875-1.125 1.49z" id="path230"/><path d="M93.767 268.98c-1.025 3.325-3.33 2.406-5.349.986-3.679-2.59-3.112-7.146.268-9.343 1.56 2.763 3.13 5.545 5.081 8.357z" id="path232"/></g><path d="M251.97 301.28s.007.21.015.316c-1.738.226-3.484.347-5.244.469v-11.871c.638-.054 1.54-.13 2.823-.122.682.908.984 1.733 1.38 3.28.406 3.123.716 5.525 1.026 7.928z" fill="#675557" id="path236" transform="translate(-255 6.723) scale(.26458)"/><path d="M92.239 289.96h2.8l2.267 11.333-1.612.591c-1.96-3.77-3.918-7.542-6.06-11.667.791-.091 1.512-.174 2.605-.258z" fill="#61595c" id="path238" transform="translate(-255 6.723) scale(.26458)"/><g fill="#675557" id="g246" transform="translate(-255 6.723) scale(.26458)"><path d="M72.968 301.28s.007.21.015.316c-1.738.226-3.484.347-5.244.469v-11.871a29.33 29.33 0 0 1 2.823-.122c.682.908.984 1.733 1.38 3.28.406 3.123.716 5.526 1.026 7.928z" id="path240"/><path d="M368.56 259.07c.683.908.984 1.734 1.381 3.28l1.026 7.928s.007.211.015.316c-1.738.226-3.484.347-5.244.47v-11.872c.638-.053 1.54-.13 2.822-.122z" id="path242"/><path d="M430.97 301.28s.007.21.015.316c-1.738.226-3.484.347-5.244.469v-11.871c.639-.054 1.54-.13 2.823-.122.682.908.984 1.734 1.38 3.28.406 3.123.716 5.526 1.026 7.928z" id="path244"/></g><g fill="#ecfcf7" id="g254" transform="translate(-255 6.723) scale(.26458)"><path d="M405.02 269.05c-3.84 1.364-3.132-2.413-3.33-3.67-.451-2.853.517-5.532 5.334-5.807 0 3.224 0 6.274-.282 9.754-.762.195-1.242-.04-1.722-.277z" id="path248"/><path d="M383.02 269.05c-3.84 1.364-3.132-2.413-3.33-3.67-.451-2.853.517-5.532 5.334-5.807 0 3.224 0 6.274-.282 9.754-.762.195-1.242-.04-1.722-.277z" id="path250"/><path d="M101.02 269.05c-3.84 1.365-3.115-2.402-3.334-3.671-.5-2.897.644-5.433 5.338-5.973 0 3.391 0 6.44-.282 9.922-.762.194-1.242-.042-1.722-.278z" id="path252"/></g><path d="M264.77 223.74c-1.38.26-2.53.26-4.228.26l3.214-6.616 7.305 3.906c-2.763.998-4.411 1.594-6.29 2.45z" fill="#316ea4" id="path256" transform="translate(-255 6.723) scale(.26458)"/><g fill="#615d5f" id="g266" transform="translate(-255 6.723) scale(.26458)"><path d="M226.02 298.37c-2.555-1.901-6.221-2.898-4.078-7.088 1.964 1.321 3.82 2.408 5.473 3.744.967.78 2.003 1.865 2.273 2.99.197.822-.802 1.932-1.267 2.914-.718-.788-1.435-1.576-2.4-2.56z" id="path258"/><path d="M366 292.98c1.847 1.109 3.835 1.824 4.67 3.226.728 1.22.152 3.216-.671 4.961-.322-4.425-8.863-3.965-5.905-10.456.723 1.015 1.135 1.594 1.906 2.269z" id="path260"/><path d="M216.76 295.22c2.708 2.237 2.841 4.106-.59 6.47.432-4.895-7.883-4.484-5.351-10.424 2.089 1.38 3.868 2.555 5.94 3.954z" id="path262"/><path d="M134.16 294.81c2.826 2.01 3.813 3.948.274 6.92.07-4.872-7.944-4.367-5.626-10.496 1.834 1.23 3.44 2.308 5.352 3.576z" id="path264"/></g><g fill="#5f5a61" id="g274" transform="translate(-255 6.723) scale(.26458)"><path d="M101.01 269.46c.491-.165.972.071 1.737.31.908-.025 1.532-.053 2.597-.633.255-3.123.068-5.693-.12-8.263 2.838-.861 4.561.637 4.626 4.021.093 4.9-4.224 7.322-8.84 4.565z" id="path268"/><path d="M383.01 269.46c.491-.165.972.07 1.737.31.908-.025 1.532-.053 2.597-.634.256-3.122.068-5.692-.119-8.262 2.837-.861 4.56.637 4.625 4.02.093 4.9-4.224 7.323-8.84 4.566z" id="path270"/><path d="M405.01 269.46c.491-.165.972.07 1.737.31.908-.025 1.532-.053 2.597-.634.256-3.122.068-5.692-.119-8.262 2.837-.861 4.56.637 4.625 4.02.093 4.9-4.224 7.323-8.84 4.566z" id="path272"/></g><path d="M316.62 171.58c1.538-.404 2.796-.602 4.053-.801l.572 2.005c-2.287.928-4.538 1.98-6.896 2.66-.38.11-1.235-1.432-1.87-2.21 1.287-.483 2.574-.966 4.141-1.654z" fill="#3971a8" id="path276" transform="translate(-255 6.723) scale(.26458)"/><path d="M392.96 216.49c-.487-.037-.639-.106-.797-.152-1.905-.555-4.6 3.604-5.532-.686-.15-.692 3.583-2.343 5.635-3.311.48-.226 2.07.613 2.043.814-.152 1.13-.642 2.213-1.349 3.335z" fill="#3971a8" id="path278" transform="translate(-255 6.723) scale(.26458)"/><g fill="#316ea4" id="g288" transform="translate(-255 6.723) scale(.26458)"><path d="M253.2 203.62c1.256-3.367 5.157-4.515 8.842-2.63-2.32 3.002-5.305 3.403-8.842 2.63z" id="path280"/><path d="M114.06 204.52c-.546-1.376-.796-2.558-1.046-3.74l7.473-1.064.588 1.928c-2.24 1.023-4.48 2.047-7.015 2.876z" id="path282"/><path d="M207.2 181.62c1.256-3.367 5.157-4.515 8.842-2.63-2.32 3.002-5.305 3.403-8.842 2.63z" id="path284"/><path d="M119.27 241.81c.324 1.165.57 3.01.331 3.075-2.414.66-4.907 1.027-7.846 1.562.89-5.398 4.818-3.696 7.515-4.637z" id="path286"/></g><path d="M392.88 301.74c-.115-2.913.17-5.972.807-9.229.098 2.896-.154 5.99-.807 9.229z" fill="#ecfcf7" id="path290" transform="translate(-255 6.723) scale(.26458)"/><path d="M361.77 268.44c-.31-2.135-.554-4.675-.81-7.622.285 2.135.581 4.676.81 7.622z" fill="#5f5a61" id="path292" transform="translate(-255 6.723) scale(.26458)"/><g fill="#ecfcf7" id="g302" transform="translate(-255 6.723) scale(.26458)"><path d="M387.15 261.32a48.72 48.72 0 0 1 .354 7.532c-.33-2.177-.378-4.628-.354-7.532z" id="path294"/><path d="M409.15 261.32a48.72 48.72 0 0 1 .354 7.532c-.33-2.177-.378-4.628-.354-7.532z" id="path296"/><path d="M105.15 261.32c.26 2.118.448 4.688.354 7.532-.33-2.177-.378-4.628-.354-7.532z" id="path298"/><path d="M396.16 293.3c.23 1.813.386 4.065.2 6.523-.318-1.89-.297-3.987-.2-6.523z" id="path300"/></g><path d="M100.36 232.04c4.59-2.636 4.59-2.636 8.224.98l-9.498 1.297-.362-.937c.442-.386.884-.772 1.636-1.34z" fill="#f6fbf5" id="path304" transform="translate(-255 6.723) scale(.26458)"/><path d="M175.16 270.04c-.4-.665-1.248-1.401-1.172-2.023.282-2.284.87-4.53 1.344-6.79.795.38 2.216.678 2.281 1.158.363 2.69 2.008 5.818-2.137 7.594-.39.007-.34.043-.316.061z" fill="#f6fbf5" id="path306" transform="translate(-255 6.723) scale(.26458)"/><path d="M357.82 269.87c-.934-.524-2.723-1.19-2.663-1.548.407-2.442 1.203-4.818 2.343-6.772.42 3.07.37 5.695.32 8.32z" fill="#edfaee" id="path308" transform="translate(-255 6.723) scale(.26458)"/><path d="M358.14 269.65c-.278-2.41-.228-5.035-.253-8.089.144 2.339.362 5.106.253 8.089z" fill="#5f5a61" id="path310" transform="translate(-255 6.723) scale(.26458)"/><path d="M281.28 268.69c-4.402-1.436-4.794-5.55-.642-8.713.546 2.777.686 5.57.642 8.713z" fill="#f6fbf5" id="path312" transform="translate(-255 6.723) scale(.26458)"/><path d="M291 190.76c.107-.673.173-1.27.24-1.866l.454.021c-.052.57-.104 1.141-.381 1.874-.226.162-.353.047-.313-.029z" fill="#27659a" id="path314" transform="translate(-255 6.723) scale(.26458)"/><path d="M164 190.76a39.51 39.51 0 0 0 .244-1.864l.448.022c-.052.57-.103 1.14-.38 1.87-.225.161-.352.047-.312-.028z" fill="#26649a" id="path316" transform="translate(-255 6.723) scale(.26458)"/><path d="M365 232.76c.109-.671.178-1.267.246-1.862l.44.02c-.05.57-.1 1.14-.375 1.872-.224.163-.35.046-.311-.03z" fill="#256398" id="path318" transform="translate(-255 6.723) scale(.26458)"/><path d="M232 190.76c.108-.671.176-1.268.244-1.864l.448.022c-.052.57-.103 1.14-.38 1.87-.225.161-.352.047-.312-.028z" fill="#26649a" id="path320" transform="translate(-255 6.723) scale(.26458)"/><path d="M276.99 232.77c.104-.674.168-1.273.233-1.871l.468.022c-.053.571-.106 1.143-.386 1.876-.227.162-.355.049-.315-.027z" fill="#2b679d" id="path322" transform="translate(-255 6.723) scale(.26458)"/><path d="M302.28 299.69c-4.402-1.436-4.794-5.55-.642-8.713.546 2.777.686 5.57.642 8.713z" fill="#f6fbf5" id="path324" transform="translate(-255 6.723) scale(.26458)"/><path d="M138 232.76c.107-.673.173-1.27.24-1.867l.453.022c-.051.57-.103 1.141-.38 1.874-.226.162-.353.047-.313-.029z" fill="#27659a" id="path326" transform="translate(-255 6.723) scale(.26458)"/><path d="M399 190.76c.107-.673.175-1.269.242-1.865l.447.021c-.05.57-.102 1.141-.377 1.874-.225.163-.352.046-.312-.03z" fill="#276399" id="path328" transform="translate(-255 6.723) scale(.26458)"/><path d="M223 190.76a39.51 39.51 0 0 0 .244-1.864l.448.022c-.052.57-.103 1.14-.38 1.87-.225.161-.352.047-.312-.028z" fill="#26649a" id="path330" transform="translate(-255 6.723) scale(.26458)"/><g fill="#edfaee" id="g340" transform="translate(-255 6.723) scale(.26458)"><path d="M73.382 301.19c-.724-2.317-1.035-4.72-1.302-7.54.995-.392 1.948-.369 2.9-.345-.394 2.6-.789 5.2-1.598 7.885z" id="path332"/><path d="M252.38 301.19c-.724-2.317-1.035-4.72-1.302-7.54.995-.392 1.948-.369 2.9-.345-.394 2.6-.789 5.2-1.598 7.885z" id="path334"/><path d="M371.38 270.19c-.724-2.317-1.035-4.72-1.302-7.54.995-.392 1.948-.369 2.9-.345-.394 2.6-.789 5.2-1.598 7.885z" id="path336"/><path d="M431.38 301.19c-.724-2.317-1.035-4.72-1.302-7.54.995-.392 1.948-.369 2.9-.345-.394 2.6-.789 5.2-1.598 7.885z" id="path338"/></g><g transform="translate(-345.03 83.167) scale(.35278)" stroke-linejoin="round" id="g460"><g transform="skewX(-4.253)" stroke-miterlimit="100000" stroke-width="1" id="g368"><g fill="#65baea" id="g354"><path d="M180.56 157.53q0 .936-.562 1.685-.561.655-1.871 1.123-1.31.468-3.557.655-2.246.28-5.708.28-3.557 0-5.803-.28-2.246-.187-3.65-.655-1.31-.468-1.871-1.123-.468-.75-.468-1.685v-49.507q0-4.211-.843-7.674-.748-3.463-2.433-5.896-1.59-2.527-4.118-3.837-2.433-1.404-5.896-1.404-4.211 0-8.516 3.275t-9.359 9.546v55.497q0 .936-.561 1.685-.562.655-1.966 1.123-1.31.468-3.556.655-2.246.28-5.615.28-3.463 0-5.709-.28-2.246-.187-3.65-.655-1.31-.468-1.871-1.123-.562-.749-.562-1.685v-49.507q0-4.211-.842-7.674-.749-3.462-2.34-5.896-1.591-2.527-4.118-3.837-2.527-1.404-5.896-1.404-4.305 0-8.61 3.276t-9.265 9.546v55.497q0 .936-.561 1.684-.562.656-1.966 1.123-1.31.468-3.556.656-2.246.28-5.709.28t-5.709-.28q-2.246-.188-3.65-.656-1.31-.468-1.871-1.123-.562-.748-.562-1.684V74.05q0-.935.468-1.59.468-.749 1.685-1.217T53 70.59q1.966-.28 4.867-.28 2.995 0 4.96.28 1.965.187 2.995.655 1.123.468 1.59 1.217.469.655.469 1.59v9.64q6.925-7.487 13.757-11.23 6.925-3.743 14.412-3.743 5.147 0 9.265 1.123 4.117 1.03 7.3 3.088 3.275 1.965 5.615 4.773t3.93 6.27q3.744-4.024 7.3-6.925 3.65-2.901 7.113-4.68 3.556-1.871 7.019-2.713 3.556-.936 7.206-.936 8.33 0 14.038 2.807t9.171 7.674q3.557 4.773 5.054 11.23t1.497 13.664v53.438z" id="path344"/><path d="M274.99 157.81q0 1.31-.936 2.059-.936.749-2.995 1.03-1.965.374-5.896.374-4.211 0-6.176-.375-1.872-.28-2.714-1.03-.75-.748-.75-2.058v-6.645q-5.146 5.522-11.791 8.61-6.551 3.089-14.6 3.089-6.645 0-12.26-1.778-5.522-1.685-9.64-5.054-4.024-3.463-6.27-8.517t-2.246-11.792q0-7.3 2.808-12.634 2.9-5.428 8.516-8.89 5.709-3.557 14.132-5.241 8.423-1.685 19.56-1.685h8.142v-5.054q0-3.93-.842-6.831-.749-2.995-2.62-4.96-1.779-1.966-4.867-2.902-2.995-.936-7.487-.936-5.896 0-10.575 1.31-4.586 1.31-8.142 2.902t-5.99 2.901q-2.34 1.31-3.837 1.31-1.03 0-1.871-.655-.75-.655-1.31-1.872-.469-1.216-.75-2.994t-.28-3.931q0-2.901.468-4.586t1.778-2.995q1.31-1.403 4.586-2.994 3.275-1.685 7.674-3.089t9.546-2.246q5.24-.936 10.762-.936 9.826 0 16.752 1.966 7.019 1.871 11.51 5.896 4.493 3.93 6.552 10.2t2.059 14.88v56.153zm-23.116-35.75h-8.984q-5.71 0-9.733.842t-6.551 2.527q-2.527 1.685-3.744 4.118-1.123 2.34-1.123 5.428 0 5.24 3.276 8.235 3.369 2.995 9.265 2.995 4.96 0 9.078-2.527 4.211-2.526 8.516-7.393V122.06z" id="path346"/><path d="M346.12 149.29q0 4.118-.562 6.364-.467 2.152-1.31 3.088-.842.843-2.527 1.591-1.59.655-3.837 1.123-2.152.562-4.773.843-2.526.28-5.147.28-7.019 0-12.166-1.778t-8.516-5.428q-3.37-3.743-4.96-9.359t-1.591-13.289V89.956h-10.014q-1.779 0-2.714-2.152-.936-2.246-.936-7.393 0-2.714.187-4.586.28-1.872.749-2.901.468-1.123 1.123-1.591.748-.468 1.684-.468h9.92V52.24q0-.936.468-1.685.562-.749 1.872-1.217 1.404-.561 3.65-.748 2.34-.281 5.709-.281 3.463 0 5.709.28 2.34.188 3.65.75 1.31.467 1.871 1.216t.562 1.685v18.624h18.156q.936 0 1.59.468.75.467 1.217 1.59.468 1.03.655 2.902.281 1.871.281 4.586 0 5.147-.936 7.393-.936 2.152-2.714 2.152h-18.249v39.213q0 6.832 2.153 10.295 2.152 3.37 7.674 3.37 1.872 0 3.369-.281 1.497-.375 2.62-.749 1.217-.468 1.966-.749.842-.374 1.497-.374.562 0 1.03.374.561.281.842 1.31.28.936.468 2.621.28 1.685.28 4.305z" id="path348"/><path d="M447.38 114.57q0 11.137-2.433 20.121-2.34 8.89-6.926 15.161-4.586 6.27-11.418 9.64t-15.629 3.369q-3.65 0-6.738-.75-2.995-.654-5.896-2.058-2.808-1.498-5.615-3.65t-5.803-5.054v39.306q0 .936-.561 1.685-.562.749-1.965 1.216-1.31.562-3.557.843t-5.708.28-5.71-.28-3.65-.843q-1.31-.467-1.87-1.216-.562-.749-.562-1.685V74.045q0-.936.468-1.59.468-.75 1.59-1.217 1.217-.468 3.089-.655 1.965-.281 4.867-.281 2.807 0 4.679.28 1.965.188 3.088.656 1.217.468 1.685 1.216.468.655.468 1.591v9.827q3.65-3.744 7.112-6.551 3.557-2.901 7.207-4.773 3.65-1.965 7.487-2.901 3.93-.936 8.329-.936 9.171 0 15.629 3.65 6.457 3.556 10.482 9.826 4.118 6.27 5.99 14.6 1.871 8.33 1.871 17.782zm-24.52 1.685q0-5.335-.842-10.201-.749-4.96-2.714-8.798-1.872-3.837-5.054-6.083-3.088-2.34-7.768-2.34-2.34 0-4.679.75-2.246.654-4.68 2.245-2.339 1.591-4.866 4.118t-5.334 6.27v27.516q4.96 6.27 9.452 9.732 4.492 3.37 9.359 3.37 4.586 0 7.768-2.34 3.275-2.34 5.334-6.083 2.059-3.837 2.995-8.61 1.03-4.773 1.03-9.546z" id="path350"/><path d="M489.87 157.53q0 .936-.562 1.685-.561.655-1.965 1.123-1.31.468-3.556.655-2.246.28-5.709.28t-5.709-.28q-2.246-.187-3.65-.655-1.31-.468-1.871-1.123-.562-.75-.562-1.685V34.46q0-.936.562-1.685t1.871-1.216q1.404-.562 3.65-.842t5.71-.281 5.708.28 3.556.843q1.404.468 1.965 1.216.562.75.562 1.685z" id="path352"/></g><path d="M597.86 114.95q0 10.669-2.808 19.466-2.807 8.797-8.516 15.161-5.709 6.364-14.319 9.827-8.61 3.462-20.121 3.462-11.137 0-19.372-3.088-8.236-3.089-13.664-8.984-5.428-5.896-8.048-14.506t-2.62-19.653q0-10.67 2.807-19.466 2.9-8.891 8.61-15.161 5.709-6.364 14.225-9.827 8.61-3.463 20.12-3.463 11.23 0 19.467 3.089 8.235 2.995 13.57 8.89 5.428 5.897 8.048 14.507t2.62 19.747zm-24.239.936q0-6.177-1.03-11.324-.935-5.241-3.275-9.078t-6.27-5.99q-3.837-2.152-9.733-2.152-5.241 0-9.172 1.965-3.93 1.872-6.457 5.615-2.527 3.65-3.837 8.891-1.217 5.147-1.217 11.792 0 6.177 1.03 11.418 1.029 5.147 3.275 8.984 2.34 3.838 6.27 5.99 3.93 2.059 9.733 2.059 5.335 0 9.265-1.872 3.931-1.965 6.458-5.615 2.527-3.65 3.743-8.797 1.217-5.241 1.217-11.886z" fill="#11557c" id="path356"/><g fill="#65baea" id="g366"><path d="M665.81 149.29q0 4.118-.562 6.364-.467 2.152-1.31 3.088-.842.843-2.527 1.591-1.59.655-3.837 1.123-2.152.562-4.773.843-2.526.28-5.147.28-7.019 0-12.166-1.778t-8.516-5.428q-3.37-3.743-4.96-9.359t-1.591-13.289V89.956h-10.014q-1.779 0-2.714-2.152-.936-2.246-.936-7.393 0-2.714.187-4.586.28-1.872.749-2.901.468-1.123 1.123-1.591.748-.468 1.684-.468h9.92V52.24q0-.936.468-1.685.562-.749 1.872-1.217 1.404-.561 3.65-.748 2.34-.281 5.709-.281 3.463 0 5.709.28 2.34.188 3.65.75 1.31.467 1.871 1.216.562.749.562 1.685v18.624h18.156q.936 0 1.59.468.75.467 1.217 1.59.468 1.03.655 2.902.281 1.871.281 4.586 0 5.147-.936 7.393-.936 2.152-2.714 2.152h-18.249v39.213q0 6.832 2.153 10.295 2.152 3.37 7.674 3.37 1.872 0 3.369-.281 1.497-.375 2.62-.749 1.217-.468 1.966-.749.842-.374 1.497-.374.562 0 1.03.374.561.281.842 1.31.28.936.468 2.621.28 1.685.28 4.305z" id="path358"/><path d="M706.61 157.53q0 .936-.562 1.685-.561.655-1.965 1.123-1.31.468-3.556.655-2.246.28-5.709.28t-5.709-.28q-2.246-.187-3.65-.655-1.31-.468-1.871-1.123-.562-.75-.562-1.685V34.46q0-.936.562-1.685t1.871-1.216q1.404-.562 3.65-.842t5.71-.281 5.708.28 3.556.843q1.404.468 1.965 1.216t.562 1.685z" stroke-width="1.008" id="path360"/><path d="M753.78 157.53q0 .936-.562 1.685-.561.655-1.965 1.123-1.31.468-3.556.655-2.246.28-5.709.28t-5.709-.28q-2.246-.187-3.65-.655-1.31-.468-1.871-1.123-.562-.75-.562-1.685V74.238q0-.936.562-1.591.561-.749 1.871-1.217 1.404-.561 3.65-.842t5.71-.28 5.708.28 3.556.842q1.404.468 1.965 1.217.562.655.562 1.591zm1.778-111.74q0 7.113-2.901 9.827t-10.762 2.714q-7.955 0-10.762-2.62-2.714-2.621-2.714-9.453 0-7.113 2.808-9.827 2.9-2.807 10.856-2.807 7.86 0 10.669 2.714 2.807 2.62 2.807 9.452z" id="path362"/><path d="M861.41 114.67q0 11.137-2.433 20.028t-7.02 15.161q-4.585 6.27-11.323 9.64-6.645 3.369-15.161 3.369-4.212 0-7.862-.843-3.65-.748-7.019-2.527-3.275-1.778-6.55-4.492-3.183-2.714-6.552-6.55v9.077q0 1.03-.561 1.778-.468.655-1.685 1.123-1.123.468-3.088.655-1.966.187-4.773.187-2.901 0-4.867-.187-1.871-.187-3.088-.655-1.123-.468-1.591-1.123-.468-.748-.468-1.778V34.463q0-.936.561-1.685t1.872-1.216q1.404-.562 3.65-.842t5.709-.281 5.709.28 3.556.843q1.404.468 1.965 1.216t.562 1.685v46.138q3.182-3.182 6.364-5.428t6.364-3.65q3.182-1.497 6.55-2.152t7.113-.655q9.265 0 15.723 3.743 6.458 3.65 10.482 9.92 4.118 6.27 5.99 14.693 1.872 8.33 1.872 17.594zm-24.426 1.685q0-5.335-.842-10.295-.749-4.96-2.714-8.798t-5.148-6.083q-3.088-2.34-7.86-2.34-2.34 0-4.587.656t-4.679 2.246q-2.34 1.59-4.866 4.118t-5.335 6.27v27.702q4.96 6.364 9.452 9.733 4.586 3.275 9.546 3.275 4.586 0 7.768-2.34t5.24-6.082q2.153-3.744 3.09-8.517t.935-9.546z" id="path364"/></g></g><g transform="translate(28.365 5.937) scale(.94805)" id="g458"><circle cx="546.02" cy="114.29" r="74.596" fill="#fff" stroke="#fff" stroke-linecap="round" stroke-miterlimit="100" stroke-width="4.8" id="circle370"/><g transform="translate(521.87 -66.566) scale(.77077)" stroke-miterlimit="100000" id="g376"><g transform="translate(-116.69 125.95) scale(2.7289)" fill="#fff" stroke-linejoin="round" stroke-miterlimit="100000" id="g374"><path d="M54 73.26a33.66 33.66 0 1 0-.001-67.321A33.66 33.66 0 0 0 54 73.26z" fill="#fff" opacity=".05" stroke-linejoin="round" stroke-miterlimit="100000" id="path372"/></g></g><g transform="translate(431.93 30.511) scale(2.1033)" stroke="#858585" stroke-dasharray="0.204085, 0.40817" stroke-linecap="round" stroke-width=".204" id="g396"><g fill="none" stroke="#858585" stroke-dasharray="0.204085, 0.40817" stroke-linecap="round" stroke-linejoin="round" stroke-width=".204" id="g394"><path d="M54 39.6h33.66" clip-path="url(#a)" opacity=".9" id="path378"/><path d="m54 39.6 23.801-23.801" clip-path="url(#a)" opacity=".9" id="path380"/><path d="M54 39.6V5.94" clip-path="url(#a)" opacity=".9" id="path382"/><path d="M54 39.6 30.199 15.799" clip-path="url(#a)" opacity=".9" id="path384"/><path d="M54 39.6H20.34" clip-path="url(#a)" opacity=".9" id="path386"/><path d="M54 39.6 30.199 63.401" clip-path="url(#a)" opacity=".9" id="path388"/><path d="M54 39.6v33.66" clip-path="url(#a)" opacity=".9" id="path390"/><path d="m54 39.6 23.801 23.801" clip-path="url(#a)" opacity=".9" id="path392"/></g></g><g transform="translate(431.93 30.511) scale(2.1033)" fill="none" stroke="#818181" stroke-dasharray="0.204085, 0.40817" stroke-miterlimit="100" stroke-width=".204" id="g408"><g fill="none" stroke="#818181" stroke-dasharray="0.204085, 0.40817" stroke-linecap="square" stroke-linejoin="round" stroke-miterlimit="100" stroke-width=".204" id="g406"><path d="m57.74 39.6-.111-.905-.327-.85-.523-.748-.688-.598-.812-.413-.888-.206-.911.016-.881.236-.797.442-.667.622-.496.765-.297.861-.08.909.143.9.356.839.549.728.708.574.826.385.895.174.91-.048.872-.266.782-.47.644-.644.47-.782.266-.872.057-.649" clip-path="url(#a)" opacity=".9" id="path398"/><path d="m65.22 39.6-.11-1.562-.325-1.53-.535-1.472-.735-1.382-.92-1.266-1.087-1.126-1.234-.964-1.355-.782-1.452-.587-1.519-.378-1.556-.164-1.565.055-1.541.271-1.49.484-1.406.686-1.298.876-1.163 1.047-1.006 1.2-.83 1.327-.636 1.43-.432 1.504-.218 1.55v1.566l.218 1.55.432 1.505.636 1.43.83 1.327 1.006 1.2 1.163 1.047 1.298.875 1.407.686 1.489.484 1.541.272 1.565.054 1.556-.163 1.52-.38 1.45-.585 1.356-.783 1.234-.964 1.087-1.126.92-1.266.735-1.382.535-1.471.326-1.531.109-1.562" clip-path="url(#a)" opacity=".9" id="path400"/><path d="m72.7 39.6-.102-1.955-.307-1.933-.506-1.89-.702-1.828-.888-1.744-1.066-1.642-1.232-1.52-1.384-1.385-1.522-1.232-1.641-1.066-1.744-.889-1.828-.701-1.89-.507-1.934-.306L54 20.9l-1.955.102-1.933.306-1.89.507-1.828.701-1.744.89-1.642 1.065-1.521 1.232-1.384 1.384-1.232 1.521-1.066 1.642-.889 1.744-.701 1.827-.507 1.891-.306 1.933L35.3 39.6l.102 1.955.306 1.933.507 1.89.701 1.828.889 1.744 1.066 1.642 1.232 1.52 1.384 1.385 1.521 1.232 1.642 1.066 1.744.889 1.827.701 1.89.507 1.934.306L54 58.3l1.954-.102 1.934-.306 1.89-.507 1.828-.701 1.744-.89 1.641-1.065 1.522-1.232 1.384-1.384 1.232-1.521 1.066-1.642.888-1.744.702-1.827.506-1.891.307-1.933.102-1.955" clip-path="url(#a)" opacity=".9" id="path402"/><path d="m80.18 39.6-.143-2.737-.43-2.706-.708-2.647-.982-2.558-1.244-2.442-1.493-2.298-1.724-2.13-1.938-1.938-2.13-1.724-2.298-1.493-2.442-1.244-2.558-.982-2.647-.709-2.706-.429L54 13.42l-2.737.143-2.706.43-2.647.708-2.558.982-2.442 1.244-2.298 1.493-2.13 1.724-1.937 1.938-1.725 2.13-1.492 2.298-1.245 2.442-.982 2.558-.709 2.647-.429 2.706-.143 2.737.143 2.737.43 2.706.708 2.647.982 2.558 1.245 2.442 1.492 2.298 1.725 2.13 1.937 1.938 2.13 1.724 2.298 1.493 2.442 1.244 2.558.982 2.647.709 2.706.429L54 65.78l2.737-.143 2.706-.43 2.647-.708 2.558-.982 2.442-1.244 2.298-1.493 2.13-1.724 1.938-1.938 1.724-2.13 1.493-2.298 1.244-2.442.982-2.558.709-2.647.429-2.706.143-2.737" clip-path="url(#a)" opacity=".9" id="path404"/></g></g><g stroke="#000" stroke-miterlimit="100" stroke-width=".456" id="g430" transform="translate(431.93 30.511) scale(2.1033)"><g opacity=".938" stroke-linejoin="round" id="g418"><path d="m54 39.6.071-.023.071-.023.214-.07.07-.023.641-.208.071-.023.285-.092.07-.023.214-.07.071-.023.214-.07.071-.022.213-.07.072-.023.284-.092.071-.023.64-.208.072-.023.213-.07.071-.023.285-.092.071-.023.213-.07.072-.023.213-.07.071-.022.711-.231.072-.023.213-.07.071-.023.214-.07.07-.022.285-.093.071-.023.214-.07.071-.022.213-.07.072-.023.213-.07.007.023.007.023.007.022.007.022.007.023.007.022.007.023.007.022.006.023.007.022.007.023.006.023.006.022.007.023.006.023.006.022.006.023.006.023.006.022.006.023.006.023.006.023.005.022.006.023.005.023.006.023.005.023.006.023.005.023.005.023.005.023.005.022.005.023.005.023.005.023.004.023.005.023.005.024.004.023.005.023.004.023.004.023.004.023.005.023.004.023.004.023.004.024.003.023.004.023.004.023.004.023.003.024.004.023.003.023.003.023.004.024.003.023.003.023.003.024.003.023.003.023.003.023.003.024.002.023.003.023.002.024.003.023.002.024.003.023.002.023.002.024.002.023.002.024.002.023.002.023.002.024.003.047.002.023.001.024.002.023.001.024.001.023.002.023.002.047v.024l.002.023v.024l.001.023.001.024v.023l.001.024v.023l.001.024v.07l.001.024v.023h-7.405z" clip-path="url(#a)" fill="#004cff" opacity=".6" id="path410"/><path d="m54 39.6 7.885-21.009.066.025.066.025.066.025.065.026.066.025.066.026.065.026.065.027.066.026.065.027.065.027.065.027.065.027.065.028.065.028.065.028.064.028.065.028.064.029.065.029.064.029.064.029.064.029.064.03.064.03.064.03.064.03.063.03.064.03.063.031.063.031.064.031.063.032.063.031.063.032.063.032.062.032.063.033.063.032.062.033.062.033.063.033.062.033.062.034.062.034.061.033.062.035.062.034.061.034.061.035.062.035.06.035.062.035.06.036.062.035.06.036.061.036.06.037.06.036.061.037.06.036.06.037.06.038.06.037.06.037.06.038.059.038.059.038.059.038.06.039.058.039.059.038.059.04.058.039.059.04.058.039.058.04.058.04.058.04.058.04.058.04.057.041.058.04.057.042.057.041.057.042.057.041.057.042.057.042.056.042.057.042.056.043.056.042.056.043.056.043.056.043.055.044.056.043.055.044.055.044-.28.35-7.974 10-5.597 7.018z" clip-path="url(#a)" fill="#ceff29" opacity=".6" id="path412"/><path d="M54 39.6 34.825 16.632l.108-.09.11-.09.109-.089.11-.088.11-.088.11-.088.11-.087.112-.086.112-.086.112-.086.113-.085.113-.084.113-.084.114-.083.114-.083.115-.082.115-.082.115-.081.115-.08.117-.08.116-.08.117-.079.117-.078.118-.078.117-.078.119-.076.118-.076.12-.076.119-.075.12-.075.12-.074.12-.073.12-.073.122-.072.121-.072.122-.07.122-.071.123-.07.122-.07.123-.068.124-.068.124-.068.124-.067.124-.066.125-.066.125-.066.125-.064.125-.064.126-.064.127-.063.126-.062.127-.062.127-.06.127-.061.128-.06.128-.06.128-.058.128-.058.13-.058.128-.057.13-.056.129-.056.13-.055.13-.054.13-.054.13-.053.132-.053.13-.052.132-.051.132-.05.131-.05.132-.05.133-.05.132-.048.133-.047.133-.047.133-.047.133-.045.134-.045.134-.045.134-.044.134-.043.134-.043.135-.042.135-.04.135-.042.135-.04.135-.039.136-.039.135-.038.136-.037.136-.037.137-.036.136-.036.137-.035.137-.034.136-.034.138-.033.137-.032.137-.032 6.592 28.878z" clip-path="url(#a)" fill="#ff6800" opacity=".6" id="path414"/><path d="m54 39.6-25.759 4.675-.029-.162-.028-.162-.027-.162-.025-.163-.025-.162-.024-.163-.023-.163-.021-.163-.021-.163-.02-.164-.018-.163-.018-.164-.016-.163-.016-.164-.015-.164-.013-.164-.013-.164-.011-.164-.01-.164-.01-.164-.008-.165-.007-.164-.007-.164-.005-.165-.004-.164-.003-.165-.002-.164-.001-.165v-.329l.002-.164.003-.165.005-.164.005-.164.006-.165.007-.164.008-.164.01-.165.01-.164.01-.164.013-.164.014-.164.014-.164.015-.164.017-.163.017-.164.019-.163.02-.164.02-.163.021-.163.023-.163.024-.163.024-.162.026-.163.027-.162.027-.162.029-.162.03-.162.03-.161.032-.162.033-.161.034-.161.035-.16.035-.161.037-.16.038-.16.039-.16.04-.16.04-.16.042-.159.043-.158.044-.159.045-.158.046-.158.047-.158.047-.157.05-.157.049-.157.05-.157.052-.156.053-.156.054-.155.054-.155.056-.155.057-.154.057-.155.059-.153.06-.154.06-.153.061-.152.063-.152.063-.152.064-.152.066-.15.066-.151.067-.15.068-.15.07-.15.07-.148.07-.149 23.352 11.246z" clip-path="url(#a)" fill="#ffc400" opacity=".6" id="path416"/></g><g id="g422"><path d="m54 39.6-.738.511-.123.085-.123.086-.738.51-.123.086-.123.085-.737.511-.123.085-.123.086-.492.34-.123.086-.123.085-.123.085-.123.085-.492.34-.123.086-.123.085-.123.085-.123.086-.492.34-.123.086-.123.085-.123.085-.615.426-.122.085-.861.596-.123.086-.861.596-.123.085-.86.597-.124.085-.86.596-.124.085-.86.597-.123.085-.861.596-.014-.02-.013-.019-.013-.019-.013-.02-.014-.019-.013-.02-.013-.019-.013-.02-.013-.019-.013-.02-.013-.019-.014-.02-.013-.019-.012-.02-.013-.019-.013-.02-.013-.02-.013-.019-.013-.02-.013-.02-.012-.02-.013-.019-.013-.02-.012-.02-.013-.02-.013-.02-.012-.019-.013-.02-.012-.02-.013-.02-.012-.02-.013-.02-.012-.02-.012-.02-.013-.02-.012-.02-.012-.02-.012-.02-.013-.02-.012-.02-.012-.02-.012-.02-.012-.02-.012-.02-.012-.02-.012-.02-.012-.021-.012-.02-.012-.02-.012-.021-.011-.02-.012-.02-.012-.021-.012-.02-.011-.02-.012-.021-.012-.02-.011-.021-.012-.02-.011-.021-.012-.02-.011-.021-.012-.02-.011-.021-.011-.02-.012-.021-.011-.02-.011-.021-.012-.021-.01-.02-.012-.021-.011-.021-.011-.02-.011-.022-.011-.02-.011-.021-.011-.02-.011-.022-.011-.02-.01-.021-.012-.021-.01-.021-.011-.02-.011-.022-.01-.02-.011-.022-.011-.02-.01-.022-.011-.02-.01-.022-.011-.02-.01-.022-.011-.02-.01-.022-.011-.02-.01-.022-.01-.021-.011-.021-.01-.021-.01-.021 13.344-6.427z" clip-path="url(#a)" fill="#29ffce" opacity=".6" stroke="#000" stroke-linejoin="round" stroke-miterlimit="100" stroke-width=".456" id="path420"/></g><g opacity=".938" stroke-linejoin="round" id="g428"><path d="m54 39.6 3.132 18.436-.072.012-.073.012-.072.012-.073.01-.073.012-.072.01-.073.011-.073.01-.072.01-.073.01-.073.01-.073.008-.073.009-.073.008-.073.008-.073.008-.073.008-.073.007-.073.007-.073.007-.073.006-.073.007-.074.005-.073.006-.073.005-.073.005-.074.005-.073.004-.073.004-.074.004-.073.004-.073.003-.074.003-.073.003-.073.002-.074.002-.073.002-.074.002-.073.001-.074.001h-.073l-.073.001H53.842l-.073-.001-.074-.001-.073-.002-.073-.001-.074-.002-.073-.002-.074-.003-.073-.003-.073-.003-.074-.003-.073-.004-.073-.004-.074-.004-.073-.004-.073-.005-.074-.005-.073-.006-.073-.005-.073-.006-.073-.006-.073-.007-.074-.007-.073-.007-.073-.007-.073-.008-.073-.008-.073-.008-.073-.009-.073-.008-.072-.01-.073-.009-.073-.01-.073-.01-.073-.01-.072-.01-.073-.011-.072-.011-.073-.012-.073-.011-.072-.012-.072-.013-.073-.012-.072-.013-.072-.013-.073-.013-.072-.014-.072-.014-.072-.014-.072-.015-.072-.015-.072-.015-.071-.015-.072-.016-.072-.016-.071-.016.873-3.828.125-.547.916-4.011.124-.547 1-4.375.124-.547.957-4.193z" clip-path="url(#a)" fill="#7dff7a" opacity=".6" id="path424"/><path d="m54 39.6 23.6 18.391-.043.056-.044.055-.044.055-.043.056-.044.055-.044.055-.045.055-.044.055-.044.054-.045.055-.045.054-.044.055-.045.054-.045.054-.046.054-.045.054-.045.054-.046.054-.046.054-.046.053-.046.054-.046.053-.046.053-.046.053-.047.053-.046.053-.047.053-.047.053-.047.052-.047.053-.047.052-.047.052-.048.053-.047.052-.048.051-.048.052-.048.052-.048.052-.048.051-.048.051-.049.052-.048.05-.05.052-.048.05-.049.051-.049.051-.049.05-.05.05-.049.051-.05.05-.049.05-.05.05-.05.05-.05.05-.05.05-.05.05-.05.048-.05.05-.051.049-.05.049-.052.049-.05.048-.051.05-.052.048-.05.048-.052.048-.052.048-.051.049-.052.047-.052.048-.052.048-.052.047-.052.048-.052.047-.053.047-.052.047-.053.047-.052.047-.053.047-.053.046-.053.047-.053.046-.054.046-.053.046-.053.046-.054.046-.054.046-.054.045-.053.046-.054.045-.055.045-.054.045-.054.045-.055.045-.054.045-.055.044-.055.045-.054.044-.055.044-.055.044-.187-.234-18.282-22.925z" clip-path="url(#a)" fill="#ff6800" opacity=".6" id="path426"/></g></g><g transform="translate(431.93 30.511) scale(2.1033)" stroke="#11557c" stroke-miterlimit="100000" id="g434"><path d="M54 73.26a33.66 33.66 0 1 0-.001-67.321A33.66 33.66 0 0 0 54 73.26z" fill="none" stroke="#11557c" stroke-linecap="square" stroke-linejoin="miter" stroke-miterlimit="100000" id="path432"/></g><g fill="none" stroke="#000" stroke-miterlimit="100" stroke-width=".456" id="g456" transform="translate(431.93 30.511) scale(2.1033)"><g stroke-linejoin="round" id="g444"><path d="m54 39.6.071-.023.071-.023.214-.07.07-.023.641-.208.071-.023.285-.092.07-.023.214-.07.071-.023.214-.07.071-.022.213-.07.072-.023.284-.092.071-.023.64-.208.072-.023.213-.07.071-.023.285-.092.071-.023.213-.07.072-.023.213-.07.071-.022.711-.231.072-.023.213-.07.071-.023.214-.07.07-.022.285-.093.071-.023.214-.07.071-.022.213-.07.072-.023.213-.07.007.023.007.023.007.022.007.022.007.023.007.022.007.023.007.022.006.023.007.022.007.023.006.023.006.022.007.023.006.023.006.022.006.023.006.023.006.022.006.023.006.023.006.023.005.022.006.023.005.023.006.023.005.023.006.023.005.023.005.023.005.023.005.022.005.023.005.023.005.023.004.023.005.023.005.024.004.023.005.023.004.023.004.023.004.023.005.023.004.023.004.023.004.024.003.023.004.023.004.023.004.023.003.024.004.023.003.023.003.023.004.024.003.023.003.023.003.024.003.023.003.023.003.023.003.024.002.023.003.023.002.024.003.023.002.024.003.023.002.023.002.024.002.023.002.024.002.023.002.023.002.024.003.047.002.023.001.024.002.023.001.024.001.023.002.023.002.047v.024l.002.023v.024l.001.023.001.024v.023l.001.024v.023l.001.024v.07l.001.024v.023h-7.405z" clip-path="url(#b)" opacity=".6" id="path436"/><path d="m54 39.6 7.885-21.009.066.025.066.025.066.025.065.026.066.025.066.026.065.026.065.027.066.026.065.027.065.027.065.027.065.027.065.028.065.028.065.028.064.028.065.028.064.029.065.029.064.029.064.029.064.029.064.03.064.03.064.03.064.03.063.03.064.03.063.031.063.031.064.031.063.032.063.031.063.032.063.032.062.032.063.033.063.032.062.033.062.033.063.033.062.033.062.034.062.034.061.033.062.035.062.034.061.034.061.035.062.035.06.035.062.035.06.036.062.035.06.036.061.036.06.037.06.036.061.037.06.036.06.037.06.038.06.037.06.037.06.038.059.038.059.038.059.038.06.039.058.039.059.038.059.04.058.039.059.04.058.039.058.04.058.04.058.04.058.04.058.04.057.041.058.04.057.042.057.041.057.042.057.041.057.042.057.042.056.042.057.042.056.043.056.042.056.043.056.043.056.043.055.044.056.043.055.044.055.044-.28.35-7.974 10-5.597 7.018z" clip-path="url(#b)" opacity=".6" id="path438"/><path d="M54 39.6 34.825 16.632l.108-.09.11-.09.109-.089.11-.088.11-.088.11-.088.11-.087.112-.086.112-.086.112-.086.113-.085.113-.084.113-.084.114-.083.114-.083.115-.082.115-.082.115-.081.115-.08.117-.08.116-.08.117-.079.117-.078.118-.078.117-.078.119-.076.118-.076.12-.076.119-.075.12-.075.12-.074.12-.073.12-.073.122-.072.121-.072.122-.07.122-.071.123-.07.122-.07.123-.068.124-.068.124-.068.124-.067.124-.066.125-.066.125-.066.125-.064.125-.064.126-.064.127-.063.126-.062.127-.062.127-.06.127-.061.128-.06.128-.06.128-.058.128-.058.13-.058.128-.057.13-.056.129-.056.13-.055.13-.054.13-.054.13-.053.132-.053.13-.052.132-.051.132-.05.131-.05.132-.05.133-.05.132-.048.133-.047.133-.047.133-.047.133-.045.134-.045.134-.045.134-.044.134-.043.134-.043.135-.042.135-.04.135-.042.135-.04.135-.039.136-.039.135-.038.136-.037.136-.037.137-.036.136-.036.137-.035.137-.034.136-.034.138-.033.137-.032.137-.032 6.592 28.878z" clip-path="url(#b)" opacity=".6" id="path440"/><path d="m54 39.6-25.759 4.675-.029-.162-.028-.162-.027-.162-.025-.163-.025-.162-.024-.163-.023-.163-.021-.163-.021-.163-.02-.164-.018-.163-.018-.164-.016-.163-.016-.164-.015-.164-.013-.164-.013-.164-.011-.164-.01-.164-.01-.164-.008-.165-.007-.164-.007-.164-.005-.165-.004-.164-.003-.165-.002-.164-.001-.165v-.329l.002-.164.003-.165.005-.164.005-.164.006-.165.007-.164.008-.164.01-.165.01-.164.01-.164.013-.164.014-.164.014-.164.015-.164.017-.163.017-.164.019-.163.02-.164.02-.163.021-.163.023-.163.024-.163.024-.162.026-.163.027-.162.027-.162.029-.162.03-.162.03-.161.032-.162.033-.161.034-.161.035-.16.035-.161.037-.16.038-.16.039-.16.04-.16.04-.16.042-.159.043-.158.044-.159.045-.158.046-.158.047-.158.047-.157.05-.157.049-.157.05-.157.052-.156.053-.156.054-.155.054-.155.056-.155.057-.154.057-.155.059-.153.06-.154.06-.153.061-.152.063-.152.063-.152.064-.152.066-.15.066-.151.067-.15.068-.15.07-.15.07-.148.07-.149 23.352 11.246z" clip-path="url(#b)" opacity=".6" id="path442"/></g><g opacity=".938" id="g448"><path d="m54 39.6-.738.511-.123.085-.123.086-.738.51-.123.086-.123.085-.737.511-.123.085-.123.086-.492.34-.123.086-.123.085-.123.085-.123.085-.492.34-.123.086-.123.085-.123.085-.123.086-.492.34-.123.086-.123.085-.123.085-.615.426-.122.085-.861.596-.123.086-.861.596-.123.085-.86.597-.124.085-.86.596-.124.085-.86.597-.123.085-.861.596-.014-.02-.013-.019-.013-.019-.013-.02-.014-.019-.013-.02-.013-.019-.013-.02-.013-.019-.013-.02-.013-.019-.014-.02-.013-.019-.012-.02-.013-.019-.013-.02-.013-.02-.013-.019-.013-.02-.013-.02-.012-.02-.013-.019-.013-.02-.012-.02-.013-.02-.013-.02-.012-.019-.013-.02-.012-.02-.013-.02-.012-.02-.013-.02-.012-.02-.012-.02-.013-.02-.012-.02-.012-.02-.012-.02-.013-.02-.012-.02-.012-.02-.012-.02-.012-.02-.012-.02-.012-.02-.012-.02-.012-.021-.012-.02-.012-.02-.012-.021-.011-.02-.012-.02-.012-.021-.012-.02-.011-.02-.012-.021-.012-.02-.011-.021-.012-.02-.011-.021-.012-.02-.011-.021-.012-.02-.011-.021-.011-.02-.012-.021-.011-.02-.011-.021-.012-.021-.01-.02-.012-.021-.011-.021-.011-.02-.011-.022-.011-.02-.011-.021-.011-.02-.011-.022-.011-.02-.01-.021-.012-.021-.01-.021-.011-.02-.011-.022-.01-.02-.011-.022-.011-.02-.01-.022-.011-.02-.01-.022-.011-.02-.01-.022-.011-.02-.01-.022-.011-.02-.01-.022-.01-.021-.011-.021-.01-.021-.01-.021 13.344-6.427z" clip-path="url(#b)" fill="none" opacity=".6" stroke="#000" stroke-linejoin="round" stroke-miterlimit="100" stroke-width=".456" id="path446"/></g><g stroke-linejoin="round" id="g454"><path d="m54 39.6 3.132 18.436-.072.012-.073.012-.072.012-.073.01-.073.012-.072.01-.073.011-.073.01-.072.01-.073.01-.073.01-.073.008-.073.009-.073.008-.073.008-.073.008-.073.008-.073.007-.073.007-.073.007-.073.006-.073.007-.074.005-.073.006-.073.005-.073.005-.074.005-.073.004-.073.004-.074.004-.073.004-.073.003-.074.003-.073.003-.073.002-.074.002-.073.002-.074.002-.073.001-.074.001h-.073l-.073.001H53.842l-.073-.001-.074-.001-.073-.002-.073-.001-.074-.002-.073-.002-.074-.003-.073-.003-.073-.003-.074-.003-.073-.004-.073-.004-.074-.004-.073-.004-.073-.005-.074-.005-.073-.006-.073-.005-.073-.006-.073-.006-.073-.007-.074-.007-.073-.007-.073-.007-.073-.008-.073-.008-.073-.008-.073-.009-.073-.008-.072-.01-.073-.009-.073-.01-.073-.01-.073-.01-.072-.01-.073-.011-.072-.011-.073-.012-.073-.011-.072-.012-.072-.013-.073-.012-.072-.013-.072-.013-.073-.013-.072-.014-.072-.014-.072-.014-.072-.015-.072-.015-.072-.015-.071-.015-.072-.016-.072-.016-.071-.016.873-3.828.125-.547.916-4.011.124-.547 1-4.375.124-.547.957-4.193z" clip-path="url(#b)" opacity=".6" id="path450"/><path d="m54 39.6 23.6 18.391-.043.056-.044.055-.044.055-.043.056-.044.055-.044.055-.045.055-.044.055-.044.054-.045.055-.045.054-.044.055-.045.054-.045.054-.046.054-.045.054-.045.054-.046.054-.046.054-.046.053-.046.054-.046.053-.046.053-.046.053-.047.053-.046.053-.047.053-.047.053-.047.052-.047.053-.047.052-.047.052-.048.053-.047.052-.048.051-.048.052-.048.052-.048.052-.048.051-.048.051-.049.052-.048.05-.05.052-.048.05-.049.051-.049.051-.049.05-.05.05-.049.051-.05.05-.049.05-.05.05-.05.05-.05.05-.05.05-.05.05-.05.048-.05.05-.051.049-.05.049-.052.049-.05.048-.051.05-.052.048-.05.048-.052.048-.052.048-.051.049-.052.047-.052.048-.052.048-.052.047-.052.048-.052.047-.053.047-.052.047-.053.047-.052.047-.053.047-.053.046-.053.047-.053.046-.054.046-.053.046-.053.046-.054.046-.054.046-.054.045-.053.046-.054.045-.055.045-.054.045-.054.045-.055.045-.054.045-.055.044-.055.045-.054.044-.055.044-.055.044-.187-.234-18.282-22.925z" clip-path="url(#b)" opacity=".6" id="path452"/></g></g></g></g></g></g></svg>